<svg width="713" height="245" viewBox="0 0 713 245" fill="none" xmlns="http://www.w3.org/2000/svg">
<path d="M32.2883 103.678C28.9461 104.263 25.756 104.34 22.718 103.908C19.7229 103.415 17.0242 102.467 14.6219 101.066C12.7371 99.9669 11.1265 98.638 9.78999 97.0796C9.51093 96.7542 9.0621 96.6217 8.66162 96.7747C8.31664 96.9064 7.99917 97.0331 7.74738 97.1336C7.62712 97.1816 7.52185 97.2236 7.43571 97.2574C6.09899 97.7808 5.08144 98.2063 3.80561 98.7491C3.75591 98.7703 3.70964 98.7903 3.66644 98.8089C3.10102 99.0535 3.06141 99.0706 2.73044 98.4331C2.66732 98.3115 2.59045 98.1815 2.51051 98.0464C2.29032 97.6741 2.04678 97.2623 2.00276 96.8772C1.95553 96.464 2.52554 95.8404 2.92344 95.4051C3.04585 95.2712 3.15202 95.155 3.21886 95.0683C4.37395 93.5706 5.77264 92.3828 7.28497 91.2519L7.5047 91.0874C8.18918 90.5746 8.87546 90.0605 9.59791 89.6017C9.6899 89.5433 9.78687 89.4923 9.88357 89.4414C10.0875 89.334 10.2904 89.2273 10.4426 89.0534C10.6981 88.7616 11.024 88.5449 11.35 88.3283C11.7075 88.0906 12.065 87.853 12.3294 87.5163C12.3945 87.4334 12.4804 87.3658 12.5641 87.2998C12.6514 87.2311 12.7363 87.1643 12.7926 87.0841C12.986 86.8093 12.9997 86.8281 13.104 86.9714C13.149 87.0331 13.2108 87.1181 13.3112 87.2126C13.5502 87.4374 13.757 87.6857 13.9648 87.9351C14.1055 88.104 14.2468 88.2735 14.3987 88.4367C14.4819 88.526 14.5698 88.6113 14.6576 88.6965C14.8603 88.8933 15.0629 89.09 15.2084 89.3366C15.4707 89.7814 14.3083 90.6034 13.7846 90.9737C13.6901 91.0406 13.6163 91.0928 13.5755 91.1253C13.5397 91.1539 13.4501 91.2136 13.33 91.2934C13.0541 91.477 13.0902 91.8923 13.3571 92.0888C13.6492 92.3038 13.9093 92.5643 14.1373 92.8704C15.188 94.2405 16.5766 95.3906 18.3031 96.3208C21.8856 98.2508 26.3926 97.8496 30.0037 95.9763C39.6019 90.9974 37.5296 82.9869 33.1625 78.0241C30.1201 74.5665 25.3892 73.835 20.7673 73.1203C20.0959 73.0165 19.4269 72.913 18.7656 72.8016C15.907 72.32 12.9762 71.6148 11.3201 70.6121C7.32956 68.1493 4.94244 64.7087 4.15874 60.2903C3.59632 57.1194 3.94319 54.218 5.19935 51.5859C6.50773 48.9447 8.53956 46.7394 11.2949 44.9701C14.0409 43.1488 17.3461 41.8995 21.2104 41.2221C24.0826 40.7186 26.7766 40.7288 29.2925 41.2525C31.7991 41.7243 34.0478 42.5629 36.0384 43.7682C38.0721 44.9125 39.794 46.2722 41.2041 47.8473C41.3628 48.0227 41.6438 48.0193 41.7464 47.8062C41.8395 47.6128 41.9173 47.4099 41.9877 47.2263C42.0074 47.1749 42.0265 47.1251 42.0452 47.0774C42.0573 47.0465 42.0697 47.0153 42.0821 46.9838C42.2437 46.574 42.4266 46.1102 42.4428 45.6682C42.4487 45.5062 42.5358 45.6512 42.6287 45.8057C42.6777 45.8873 42.7284 45.9717 42.7695 46.0147C43.0971 46.3578 43.5897 46.609 44.015 46.8136C44.0689 46.8395 44.1384 46.8658 44.2139 46.8944C44.4414 46.9805 44.7244 47.0877 44.8057 47.2691C44.8691 47.4106 44.7372 47.6322 44.6324 47.8083C44.5932 47.874 44.5579 47.9334 44.5378 47.9799C44.3154 48.4967 44.1557 49.0443 43.996 49.5921C43.864 50.0452 43.7318 50.4985 43.5641 50.9345C43.0908 52.1647 42.5833 53.3822 42.076 54.5992C41.8456 55.152 41.6152 55.7048 41.388 56.2585C41.3622 56.3215 41.3364 56.3885 41.3098 56.4576C41.1176 56.9571 40.8832 57.5662 40.2951 57.5295C39.1905 57.4607 38.1032 57.2627 37.0372 56.9746C36.7967 56.9096 36.5611 56.8306 36.3257 56.7518C36.1041 56.6775 35.8827 56.6033 35.6575 56.5409C35.595 56.5235 35.4831 56.5168 35.3564 56.5093C35.0831 56.493 34.7409 56.4725 34.6766 56.3323C34.645 56.2634 34.8477 56.1 34.9563 56.0125C34.985 55.9893 35.0072 55.9714 35.0166 55.9621C35.4122 55.5693 35.7868 55.1695 36.1231 54.7237C36.5834 54.1136 36.8473 53.2826 36.9407 52.4559C36.9738 52.1622 36.8431 51.8813 36.6511 51.6566C36.6422 51.646 36.6332 51.6354 36.6243 51.6248C35.6289 50.5665 34.4385 49.6228 33.0531 48.7938C31.7106 47.9035 30.1485 47.293 28.3668 46.9621C26.5851 46.6313 24.5147 46.6458 22.1555 47.0057C18.0301 47.7289 14.8708 49.1938 12.6777 51.4006C10.4754 53.5553 9.66928 56.2961 10.2594 59.6229C10.5728 61.3903 11.3333 62.9453 12.5406 64.288C13.7387 65.5787 15.5051 66.5822 17.8398 67.2985C20.2175 67.9537 23.2801 68.2208 27.0278 68.0999C33.7213 67.8913 38.9067 69.0459 42.5839 71.5636C46.3041 74.0201 48.5975 77.6915 49.4642 82.5777C49.9621 85.3847 49.8824 87.9714 49.2253 90.3377C48.6203 92.6948 47.5116 94.7919 45.899 96.6289C44.3294 98.4047 42.3605 99.9022 39.9922 101.121C37.6762 102.331 35.1082 103.183 32.2883 103.678Z" fill="#020887"/>
<path d="M64.4678 46.8699C68.7807 46.1139 71.4105 48.4046 72.3572 53.742C72.581 55.0038 72.8412 56.6406 73.138 58.6523L73.7413 62.9432C73.8639 63.8041 73.9716 64.6227 74.0642 65.399L74.193 66.3599C74.2729 66.9555 74.8564 67.3467 75.4377 67.1943L75.6354 67.1425C76.1111 67.0292 76.6498 66.8899 77.2514 66.7246C77.5574 66.671 77.7349 66.7819 77.7837 67.0575L78 70.5639C78.0026 70.8326 77.8681 71.0057 77.5964 71.0832L71.3495 72.582C71.1455 72.6178 71.0153 72.4761 70.9587 72.157L70.946 71.9302C70.8965 71.0461 69.7745 70.6303 69.0811 71.181C67.3851 72.5278 65.4838 73.3859 63.3773 73.7551C61.148 74.1459 59.1977 73.8223 57.5263 72.7843C55.7545 71.6891 54.6642 69.9885 54.2551 67.6824C53.7226 64.6802 54.3901 62.3873 56.2576 60.8037C57.9031 59.4086 60.8313 58.342 65.0421 57.6039C65.6188 57.5028 66.2225 57.4068 66.8533 57.3157C67.4027 57.2364 67.7928 56.7302 67.6972 56.1834C67.6941 56.1657 67.691 56.1482 67.6879 56.1307L67.5413 55.304C67.0396 52.4758 65.543 51.28 63.0515 51.7168C61.9138 51.9162 60.5942 52.4582 59.0926 53.3429C58.7092 53.5688 58.5364 54.0285 58.6597 54.456L58.6856 54.5458C58.7636 54.8162 58.8168 55.0312 58.8451 55.1908C58.9017 55.5099 58.7697 55.6975 58.4492 55.7537L54.8568 56.4491C54.7971 56.4606 54.7363 56.4688 54.676 56.4616C54.4576 56.4355 54.314 56.3031 54.2451 56.0644L52.77 49.9074C52.7082 49.5593 52.8338 49.3355 53.1466 49.2358L56.7116 48.1173C57.0176 48.0637 57.1989 48.1964 57.2555 48.5155L57.2793 48.6497C57.4124 49.4 58.3057 49.7347 58.9321 49.3006C60.8121 47.9975 62.6574 47.1873 64.4678 46.8699ZM64.1779 69.3752C65.7001 69.1083 67.2905 68.4223 68.9492 67.317C69.2615 67.1088 69.419 66.7364 69.3621 66.3654C69.2401 65.5708 69.0984 64.7183 68.9369 63.8078C68.8023 62.989 68.6725 62.1768 68.5476 61.3712C68.4616 60.8162 67.9367 60.4378 67.3852 60.5438C64.1012 61.1747 61.8358 61.9055 60.5891 62.7363C59.3275 63.5855 58.8228 64.7208 59.0749 66.1422C59.5482 68.8109 61.2492 69.8885 64.1779 69.3752Z" fill="#020887"/>
<path d="M93.0941 47.4152C91.3673 47.7179 89.5287 48.7174 87.5781 50.4136C87.3141 50.6432 87.1988 50.9984 87.2668 51.3416L89.5189 62.7041C89.6329 63.2795 90.2155 63.6336 90.7788 63.47L92.0669 63.0957C92.3146 63.0523 92.4604 63.1539 92.5041 63.4005L92.687 66.8454C92.6853 67.1747 92.5533 67.3623 92.291 67.4083L83.1772 69.0058C82.9441 69.0467 82.7966 68.8931 82.7349 68.545L82.5816 65.1398C82.5859 64.825 82.7191 64.6446 82.9814 64.5986L83.8522 64.446C84.3969 64.3505 84.7607 63.8309 84.6641 63.2864L82.4583 50.8499C82.3637 50.3169 81.8622 49.9559 81.3267 50.0354L78.9291 50.3917C78.6377 50.4427 78.4611 50.2942 78.3994 49.9461L78.1252 46.1135C78.1106 45.8618 78.2585 45.6789 78.5687 45.5647L84.3949 43.6345C84.4413 43.6192 84.4886 43.6054 84.5374 43.6035C84.7568 43.5949 84.8932 43.7414 84.9467 44.0429L85.1945 45.44C85.3498 46.3157 86.5079 46.5823 87.0932 45.9125C89.1475 43.5617 91.34 42.182 93.6709 41.7734C96.993 41.1911 99.2537 42.4174 100.453 45.4523C100.842 46.4608 101.118 47.4219 101.28 48.3357C101.439 49.2349 101.567 49.9976 101.663 50.6238C101.757 51.2355 101.854 51.9138 101.957 52.6586L102.314 54.9288C102.427 55.7317 102.539 56.5345 102.651 57.3373L102.973 59.6587C103.019 59.9965 103.063 60.3224 103.105 60.6364C103.183 61.2182 103.741 61.6104 104.315 61.4841L105.742 61.1697C106.048 61.1161 106.232 61.2633 106.294 61.6114L106.861 64.8094C106.892 64.9835 106.869 65.1072 106.792 65.1805C106.727 65.2368 106.608 65.2875 106.436 65.3327L100.182 66.9223C99.8618 66.9785 99.6732 66.847 99.6166 66.528C99.3799 64.9394 99.1381 63.4489 98.8911 62.0566L98.2904 58.4157C98.1077 57.386 97.9367 56.4215 97.7772 55.5222L97.071 51.541C96.752 49.7425 96.3958 48.6235 96.0023 48.184C95.6063 47.73 95.1902 47.459 94.7539 47.371C94.3176 47.283 93.7644 47.2977 93.0941 47.4152Z" fill="#020887"/>
<path d="M53.1238 101.321C53.7266 100.872 54.5775 101.24 54.6857 101.984C55.2583 105.92 55.9872 109.827 56.5174 113.768C56.9671 117.111 57.6681 120.569 57.6818 123.952C57.6833 124.318 57.7223 125.755 57.1532 125.854C56.395 125.987 55.7353 126.172 54.9501 126.241C52.5133 126.454 49.9994 126.599 47.5559 126.567C44.1475 126.521 40.5766 125.344 37.2724 124.607C34.2633 123.936 31.2461 122.555 28.635 120.939C26.2202 119.445 24.0385 118.826 21.0526 116.519C20.2467 115.72 19.4038 114.997 18.6168 114.177C18.1587 113.7 17.7077 113.188 17.2909 112.661C16.6301 111.825 15.8572 110.605 16.9032 110.822C18.0309 111.055 19.8335 111.702 20.1409 111.781C23.784 112.708 27.2767 113.097 30.9939 112.327C36.0067 111.289 40.773 109.016 45.3228 106.739C47.3519 105.724 50.755 103.087 53.1238 101.321Z" fill="#020887"/>
<path d="M65.6782 85.682C65.5896 85.1021 65.0232 84.7225 64.4548 84.8673C63.4001 85.1359 62.2353 85.4486 60.9603 85.8053C60.7199 85.8475 60.5573 85.8199 60.4724 85.7226C60.3875 85.6253 60.311 85.4481 60.2429 85.1908L58.7271 79.2786C58.7139 79.2273 58.7042 79.1749 58.7017 79.122C58.6911 78.9013 58.7296 78.7532 58.8172 78.6775C58.9223 78.5775 59.0848 78.486 59.3046 78.403C59.3496 78.386 59.3965 78.3736 59.4437 78.3643C61.5698 77.9473 63.4179 77.5789 64.9882 77.2593C66.5978 76.9323 67.9908 76.6545 69.1671 76.4258C70.3653 76.1934 71.3797 76.0044 72.2102 75.8588C73.0587 75.6876 73.7889 75.5484 74.4009 75.4411C75.0308 75.3083 75.5862 75.1997 76.0671 75.1154L77.444 74.874C83.957 73.7324 89.0881 74.5827 92.8373 77.4249C97.1818 80.7011 100.16 86.8861 101.773 95.9799C103.298 104.573 102.62 111.489 99.7407 116.727C96.9899 121.673 92.5109 124.69 86.3039 125.778C79.7909 126.92 73.7979 127.69 68.3249 128.089C67.9495 128.132 67.7065 127.905 67.5959 127.409L66.9648 121.564C66.9496 121.264 67.0455 121.048 67.2525 120.916C67.3323 120.866 67.4271 120.847 67.5212 120.837L69.9519 120.592C70.5214 120.535 70.9265 120.012 70.84 119.446L65.6782 85.682ZM78.5587 118.645C78.6454 119.166 79.1226 119.53 79.6476 119.473C81.0298 119.322 82.063 119.186 82.7472 119.066L84.8454 118.699C89.2821 117.921 92.2665 115.816 93.7987 112.385C95.3528 108.95 95.5896 104.186 94.5091 98.0945C92.7186 87.9999 89.2244 82.466 84.0264 81.4929C82.3486 81.1813 80.8759 81.1367 79.6083 81.3589C77.6908 81.695 75.6576 82.1118 73.5087 82.6093C72.9968 82.7279 72.6672 83.2249 72.7534 83.7432L78.5587 118.645Z" fill="#020887"/>
<path d="M113.668 117.211C113.464 117.247 113.331 117.09 113.269 116.742L112.686 113.457C112.638 113.182 112.73 113.023 112.963 112.983L114.61 112.694C115.15 112.599 115.513 112.087 115.424 111.546L113.212 98.1824C113.127 97.6737 112.67 97.3124 112.156 97.3482L109.457 97.5358C109.189 97.5528 109.03 97.4163 108.978 97.1262L108.823 93.4522C108.835 93.1809 108.982 92.998 109.266 92.9034L116.154 90.9557C116.315 90.9276 116.424 90.9532 116.484 91.0326C116.54 91.0975 116.591 91.2156 116.637 91.3871L117.623 95.2968L120.288 110.681C120.383 111.226 120.901 111.591 121.446 111.496L122.951 111.232C123.184 111.191 123.325 111.308 123.374 111.584L123.486 114.503C123.488 114.682 123.457 114.807 123.395 114.878C123.344 114.931 123.225 114.982 123.039 115.03L113.668 117.211ZM115.155 86.0837C114.917 86.3498 114.571 86.5599 114.118 86.7142C113.664 86.8684 113.11 87.003 112.454 87.118C111.813 87.2303 111.311 87.2809 110.949 87.2697C110.601 87.2559 110.308 87.1726 110.07 87.0198C109.674 86.7305 109.397 86.1435 109.24 85.2587C109.083 84.374 109.015 83.7354 109.035 83.343C109.068 82.9335 109.196 82.597 109.419 82.3335C109.804 81.8772 110.507 81.5597 111.527 81.3809C112.561 81.1996 113.258 81.1073 113.618 81.104C113.976 81.0862 114.273 81.1537 114.511 81.3065C114.914 81.5498 115.197 82.1283 115.359 83.042C115.521 83.9557 115.587 84.6246 115.557 85.0486C115.527 85.4726 115.393 85.8176 115.155 86.0837Z" fill="#020887"/>
<path d="M143.936 112.827C143.855 112.16 143.15 111.758 142.518 111.986C140.941 112.554 139.033 113.034 136.794 113.426C133.865 113.94 131.578 113.413 129.933 111.847C128.217 110.219 126.999 107.374 126.279 103.313C125.522 99.0491 125.548 95.7621 126.355 93.4522C127.284 90.8966 129.175 89.107 132.028 88.0835C133.017 87.7307 134.138 87.4444 135.391 87.2248C138.087 86.7523 140.164 87.0687 141.622 88.174C143.08 89.2793 144.049 91.188 144.53 93.9002C144.844 95.6697 144.773 97.0879 144.316 98.155C144.166 98.4953 143.951 98.892 143.671 99.3449C143.388 99.7833 142.8 100.238 141.907 100.708C141.026 101.162 139.995 101.574 138.814 101.946C137.179 102.445 134.968 102.951 132.183 103.463C131.609 103.568 131.237 104.139 131.419 104.693C132.02 106.525 132.82 107.741 133.818 108.34C134.714 108.901 136.116 109.014 138.025 108.679C139.557 108.411 141.064 108.032 142.545 107.543C142.988 107.397 143.26 106.956 143.205 106.493L143.163 106.141C143.147 105.964 143.163 105.842 143.211 105.774C143.273 105.703 143.388 105.63 143.555 105.556L146.478 104.35C146.545 104.322 146.615 104.3 146.688 104.295C146.947 104.279 147.117 104.39 147.199 104.626C147.286 104.865 147.416 105.343 147.589 106.061C147.758 106.764 147.911 107.372 148.048 107.887C148.184 108.401 148.309 108.895 148.423 109.369L148.727 110.572C148.806 110.932 148.867 111.235 148.911 111.482C148.988 111.917 148.712 112.227 148.084 112.412L144.533 113.483C144.213 113.539 144.024 113.408 143.967 113.089L143.936 112.827ZM139.213 97.5914C139.533 97.1914 139.69 96.7675 139.686 96.3196C139.694 95.8547 139.645 95.3249 139.539 94.7302C139.431 94.121 139.278 93.5946 139.079 93.1509C138.895 92.7047 138.642 92.3378 138.32 92.0502C137.629 91.4536 136.642 91.2677 135.359 91.4924C132.883 91.9266 131.339 92.8402 130.73 94.2331C130.222 95.369 130.095 97.102 130.351 99.4321C130.413 99.9978 130.951 100.379 131.509 100.267C135.95 99.3704 138.518 98.4787 139.213 97.5914Z" fill="#020887"/>
<path d="M170.975 81.2565C171.368 81.1876 171.626 81.4116 171.748 81.9286L172.069 85.3941C172.092 85.6703 171.982 85.8447 171.741 85.9172C171.68 85.9356 171.616 85.9385 171.552 85.9374L170.686 85.9221C169.714 85.9049 169.237 87.2282 169.817 88.0075C170.301 88.6565 170.599 89.3004 170.712 89.9389C170.949 91.2733 170.982 92.5163 170.81 93.6679C170.651 94.8025 170.236 95.8098 169.566 96.69C168.216 98.4819 165.807 99.6817 162.34 100.29C161.299 100.472 160.32 100.557 159.402 100.546C158.909 100.54 158.451 100.858 158.383 101.345C158.316 101.823 158.311 102.226 158.37 102.556C158.46 103.063 158.561 103.42 158.672 103.624C158.783 103.829 158.96 103.978 159.202 104.07C159.639 104.247 160.258 104.266 161.059 104.126C161.875 103.983 162.636 103.827 163.343 103.658C165.178 103.247 166.649 102.944 167.756 102.75C168.878 102.553 169.916 102.558 170.869 102.765C171.836 102.969 172.651 103.327 173.313 103.84C174.602 104.84 175.42 106.319 175.768 108.277C176.192 110.67 175.584 112.788 173.943 114.631C172.14 116.667 169.345 118.017 165.557 118.681C162.395 119.235 160.007 119.242 158.394 118.702C156.588 118.092 155.519 116.851 155.188 114.98C154.903 113.377 155.214 111.554 156.121 109.511C156.368 108.954 156.09 108.301 155.607 107.929C154.927 107.405 154.496 106.636 154.316 105.622C154.097 104.383 154.445 102.835 155.363 100.98C155.638 100.424 155.385 99.7449 154.844 99.4414C152.874 98.3345 151.638 96.3633 151.135 93.5277C150.618 90.6124 151.192 88.2163 152.857 86.3392C154.346 84.6574 156.606 83.5509 159.637 83.0197C161.211 82.7438 162.657 82.5127 163.976 82.3264C167.054 81.8915 169.387 81.5349 170.975 81.2565ZM166.34 92.4775C166.397 91.8692 166.367 91.2315 166.248 90.5643C166.13 89.8972 165.919 89.2987 165.614 88.7688C165.322 88.2218 164.936 87.7811 164.456 87.4465C163.427 86.7295 162.09 86.5153 160.443 86.8039C157.821 87.2636 156.266 88.4484 155.778 90.3584C155.614 91.0451 155.614 91.8453 155.776 92.759C156.303 95.7323 158.417 96.8945 162.118 96.2458C164.712 95.7912 166.119 94.5351 166.34 92.4775ZM166.969 107.329L161.011 108.553C160.721 108.604 160.447 108.646 160.188 108.681C159.75 108.739 159.378 109.055 159.315 109.493C159.17 110.485 159.179 111.436 159.34 112.345C159.541 113.477 160.124 114.182 161.09 114.461C162.058 114.755 163.3 114.769 164.816 114.504C166.331 114.238 167.487 113.938 168.284 113.604C169.084 113.284 169.74 112.915 170.251 112.497C171.269 111.63 171.683 110.66 171.493 109.587C171.331 108.673 171.028 108.068 170.585 107.772C169.748 107.201 168.542 107.054 166.969 107.329Z" fill="#020887"/>
<path d="M178.083 92.9987C177.643 90.5186 177.482 88.4233 177.599 86.7129C177.728 84.9854 178.114 83.557 178.755 82.4277C179.953 80.3781 182.265 79.0532 185.689 78.453C188.079 78.0342 189.862 77.9683 191.04 78.2553C192.232 78.5398 193.195 78.9318 193.93 79.4311C194.679 79.9279 195.365 80.6153 195.986 81.4934C197.237 83.293 198.126 85.6795 198.653 88.6528C199.178 91.6115 199.372 93.9329 199.235 95.6169C199.112 97.2983 198.722 98.6977 198.064 99.815C196.833 101.855 194.491 103.178 191.038 103.783C187.425 104.417 184.64 104.007 182.685 102.556C180.456 100.913 178.922 97.7269 178.083 92.9987ZM194.167 97.1557C194.501 96.499 194.685 95.6293 194.718 94.5467C194.752 93.4641 194.634 92.1687 194.367 90.6603C194.099 89.1519 193.803 87.9476 193.478 87.0475C193.153 86.1473 192.791 85.4182 192.392 84.8601C192.004 84.285 191.583 83.8579 191.128 83.5787C190.67 83.2851 190.193 83.0921 189.695 82.9998C188.95 82.8613 188.001 82.893 186.85 83.0948C185.699 83.2965 184.797 83.5445 184.143 83.8385C183.489 84.1326 182.986 84.6021 182.635 85.2469C181.971 86.4999 181.934 88.7943 182.526 92.1301C183.367 96.8729 185.124 99.324 187.797 99.4837C188.617 99.5343 189.486 99.4792 190.404 99.3183C191.322 99.1574 192.092 98.9252 192.714 98.6217C193.348 98.3012 193.833 97.8125 194.167 97.1557Z" fill="#020887"/>
<path d="M114.639 27.1258C113.756 27.2915 112.922 27.5719 112.071 27.8163C111.643 27.9391 111.399 28.3993 111.555 28.816C111.57 28.8581 111.582 28.9016 111.59 28.9458L111.786 30.0486C114.175 43.4626 117.257 58.9647 119.639 72.3609C119.686 72.6224 119.855 72.8032 120.12 72.7845C123.661 72.5355 148.645 67.3012 161.13 65.1126L188.654 60.2879C189.127 60.205 191.689 60.056 191.286 59.4579C190.796 58.7303 190.345 57.9567 189.804 57.2651C189.174 56.46 188.709 55.3412 188.003 54.6305C186.064 52.6805 184.707 50.8597 182.399 49.2511C181.611 48.7016 180.847 48.1475 180.1 47.5813C177.125 45.3278 174.402 42.6186 171.151 40.7808C169.228 39.6931 168.495 38.8166 164.613 36.6027C152.545 29.7198 137.46 27.2352 123.699 27.0313C120.723 26.9872 117.572 26.5758 114.639 27.1258Z" fill="#020887"/>
<path d="M202.302 59.5771C201.856 59.2603 201.747 58.6445 202.058 58.1944L234.135 11.6698C234.738 10.7961 236.123 11.3517 235.981 12.4034C231.68 44.2201 235.671 62.6391 250.105 91.2155C250.578 92.1527 249.477 93.1187 248.621 92.5103L202.302 59.5771Z" fill="#020887"/>
<path d="M278.444 25.6599C278.346 25.6678 278.248 25.6633 278.154 25.6358C277.541 25.4558 277.177 25.0062 277.061 24.2871C277.05 24.2212 277.049 24.1539 277.055 24.0873L278.141 9.8125C278.193 8.5625 278.661 7.9375 279.547 7.9375L335.692 9.24141C336.26 9.25462 336.725 8.79151 336.715 8.22281L336.656 5.125C336.656 3.92708 337.229 3.25 338.375 3.09375L350.719 2C351.604 2 352.151 2.59896 352.359 3.79688L356.578 36.6094C356.578 37.4427 355.979 37.9115 354.781 38.0156L340.562 39.1875C338.479 39.1875 337.385 38.1719 337.281 36.1406L337.068 26.3106C337.056 25.7778 336.629 25.3477 336.096 25.3328L307.357 24.5284C306.799 24.5128 306.337 24.9558 306.329 25.5133L305.812 60.6689C305.804 61.2283 306.256 61.6857 306.816 61.6836L346.109 61.5312C347.047 61.5312 347.516 62.026 347.516 63.0156L346.969 75.6719C346.865 76.8698 346.161 77.4688 344.859 77.4688L306.575 76.4793C306.018 76.4649 305.556 76.9085 305.549 77.4656L305.108 110.379C305.1 110.959 305.587 111.424 306.166 111.391L325.25 110.281C326.344 110.281 326.943 110.854 327.047 112L327.906 125.75C327.854 126.427 327.75 126.896 327.594 127.156C327.438 127.417 327.073 127.547 326.5 127.547L279.796 128.483C279.734 128.484 279.672 128.479 279.611 128.469C279.092 128.378 278.685 128.268 278.393 128.139C278.328 128.11 278.268 128.073 278.219 128.022C278.005 127.797 277.875 127.404 277.828 126.844L276.969 112.625C276.969 111.613 277.411 111.043 278.296 110.916C278.348 110.909 278.401 110.908 278.454 110.91L287.179 111.325C287.746 111.353 288.222 110.902 288.226 110.334L288.836 25.9052C288.84 25.318 288.34 24.8536 287.755 24.9012L278.444 25.6599Z" fill="#020887"/>
<path d="M407.828 111.688C408.661 111.688 409.078 112.182 409.078 113.172L408.844 127.078C408.844 128.12 408.219 128.641 406.969 128.641L370.719 127.625C369.833 127.625 369.365 127 369.312 125.75L368.691 112.007C368.689 111.95 368.691 111.894 368.699 111.838C368.812 111.108 369.179 110.653 369.799 110.472C369.89 110.446 369.985 110.441 370.08 110.448L379.717 111.141C380.299 111.183 380.793 110.72 380.789 110.136L380.179 27.1261C380.175 26.5795 379.733 26.1374 379.186 26.1334L369.469 26.0625C368.531 26.0625 368.062 25.4896 368.062 24.3438L369.312 10.5938C369.365 9.96875 369.521 9.57812 369.781 9.42188C370.077 9.22489 370.512 9.07447 371.087 8.97061C371.154 8.95853 371.222 8.95444 371.29 8.95706L407.672 10.3594C408.245 10.4115 408.609 10.5677 408.766 10.8281C408.922 11.0365 409.026 11.4792 409.078 12.1562L408.531 24.5781C408.427 25.724 407.828 26.2969 406.734 26.2969H398.591C398.04 26.2969 397.593 26.7429 397.591 27.2941L397.362 110.685C397.361 111.238 397.809 111.688 398.362 111.688H407.828Z" fill="#020887"/>
<path d="M484 125.594C479.625 127.052 474.104 127.781 467.438 127.781C461.086 127.781 453.599 127.025 444.979 125.512C444.329 125.398 443.744 125.929 443.802 126.587L444.234 131.531C444.234 132.469 443.635 132.938 442.438 132.938L429 133.328C427.021 133.224 425.927 132.208 425.719 130.281L422.75 100.047C422.75 99.0052 423.375 98.4323 424.625 98.3281L439.938 96.9219C440.927 96.9219 441.474 97.5208 441.578 98.7188L442.527 110.546C442.566 111.027 442.941 111.411 443.421 111.46C450.643 112.184 457.841 112.547 465.016 112.547C472.464 112.547 477.672 111.297 480.641 108.797C483.609 106.245 485.094 102.417 485.094 97.3125C485.094 92.7292 483.349 88.9792 479.859 86.0625C478.036 84.5 475.667 82.9635 472.75 81.4531L451.344 71.0625C443.792 67.4688 438.609 64.6042 435.797 62.4688C432.984 60.2812 430.823 58.1458 429.312 56.0625C426.292 51.8438 424.781 46.8958 424.781 41.2188C424.781 35.4896 425.667 30.6198 427.438 26.6094C429.208 22.5469 431.708 19.0573 434.938 16.1406C441.708 9.94271 450.302 6.84375 460.719 6.84375C468.035 6.84375 475.963 7.99058 484.503 10.2842C484.684 10.333 484.879 10.3297 485.058 10.2751C491.564 8.30002 495.638 7.3125 497.281 7.3125C499 7.3125 499.911 8.01562 500.016 9.42188L498.453 41.8438C498.349 43.0417 497.932 43.6406 497.203 43.6406L484.078 43.1719C483.349 43.1198 482.906 42.9375 482.75 42.625C482.594 42.3125 482.49 41.8177 482.438 41.1406L481.84 24.7155C481.824 24.2653 481.508 23.881 481.069 23.7805C475.201 22.4372 470.293 21.7656 466.344 21.7656C455.979 21.7656 448.922 24.6562 445.172 30.4375C443.818 32.5208 443.141 34.9948 443.141 37.8594C443.141 40.6719 443.818 43.0156 445.172 44.8906C446.526 46.7656 448.479 48.5365 451.031 50.2031C453.583 51.8177 456.708 53.4583 460.406 55.125L473.219 60.9844C485.25 66.5573 493.271 71.5312 497.281 75.9062C501.656 80.6458 503.844 87.2865 503.844 95.8281C503.844 111.193 497.229 121.115 484 125.594Z" fill="#020887"/>
<path d="M560.719 109.344C561.552 109.344 561.969 109.839 561.969 110.828L560.953 125.516C560.849 126.557 560.224 127.078 559.078 127.078L522.828 127.625C521.943 127.625 521.474 127 521.422 125.75L521.578 111.922C521.578 111.183 521.951 110.701 522.696 110.474C522.783 110.448 522.874 110.439 522.965 110.441L530.159 110.643C530.723 110.659 531.188 110.207 531.188 109.643V27.2263C531.188 26.6711 530.735 26.2222 530.18 26.2263L520.797 26.2969C520.224 26.2969 519.859 26.1667 519.703 25.9062C519.547 25.6458 519.443 25.2031 519.391 24.5781L518.688 10.8281C518.74 10.2031 518.896 9.8125 519.156 9.65625C519.454 9.458 519.893 9.30691 520.473 9.20298C520.532 9.19233 520.593 9.18799 520.653 9.18896L559.547 9.8125C560.484 9.91667 560.953 10.5156 560.953 11.6094L560.641 25.3594C560.641 26.5052 560.042 27.0781 558.844 27.0781L549.66 26.5874C549.089 26.5569 548.608 27.0114 548.607 27.5837L548.534 60.0472C548.532 60.6054 548.988 61.0566 549.546 61.0494L589.888 60.5284C590.435 60.5213 590.875 60.0757 590.875 59.5285V25.7837C590.875 25.2428 590.445 24.7999 589.904 24.7842L580.172 24.5C579.599 24.5 579.234 24.3698 579.078 24.1094C578.922 23.849 578.818 23.4062 578.766 22.7812L579.234 9.8125C579.339 8.71875 579.964 8.17188 581.109 8.17188L617.594 8.01562C618.167 8.06771 618.531 8.22396 618.688 8.48438C618.844 8.69271 618.948 9.13542 619 9.8125L620.016 23.7969C620.016 24.9427 619.417 25.5156 618.219 25.5156L609.318 25.3054C608.757 25.2921 608.296 25.7419 608.294 26.3024L608.065 111.042C608.064 111.608 608.532 112.063 609.098 112.045L620.094 111.688C620.927 111.688 621.344 112.182 621.344 113.172L620.328 127.078C620.224 128.12 619.599 128.641 618.453 128.641L581.422 127.625C580.536 127.625 580.068 127 580.016 125.75L580.172 112.703C580.172 111.972 580.537 111.492 581.267 111.262C581.369 111.23 581.476 111.223 581.582 111.231L589.801 111.842C590.381 111.885 590.875 111.426 590.875 110.845V77.3043C590.875 76.7491 590.423 76.3002 589.868 76.3043L549.443 76.6021C548.895 76.6061 548.452 77.0512 548.451 77.5997L548.378 109.129C548.376 109.709 548.868 110.169 549.447 110.128L560.719 109.344Z" fill="#020887"/>
<path d="M62.5547 227.977C61.9818 227.977 61.6693 227.716 61.6172 227.195L61.8906 220.633C61.9427 220.138 62.151 219.891 62.5156 219.891H64.1563C64.7295 219.891 65.1853 219.41 65.1549 218.837L63.2324 182.727C63.1711 181.575 61.5311 181.425 61.2615 182.547L50.4062 227.703C50.3021 228.224 49.9896 228.484 49.4688 228.484L41.1875 228.602C40.7188 228.602 40.4193 228.315 40.2891 227.742L29.1357 184.544C28.846 183.422 27.199 183.608 27.1678 184.767L26.2555 218.584C26.2399 219.163 26.7191 219.635 27.2986 219.61L29.8203 219.5C30.1589 219.5 30.3672 219.747 30.4453 220.242L31.1001 227.098C31.1063 227.163 31.1074 227.228 31.0962 227.292C31.0162 227.748 30.7081 227.977 30.1719 227.977L13.2188 228.25C12.776 228.25 12.5417 227.938 12.5156 227.312L12.9844 220.008C13.0291 219.65 13.1889 219.417 13.4638 219.309C13.5575 219.272 13.6604 219.27 13.7608 219.279L17.7331 219.641C18.2972 219.692 18.7913 219.265 18.8221 218.699L21.0069 178.67C21.0403 178.058 20.5214 177.561 19.9121 177.62L16.2266 177.977C15.7057 177.977 15.4323 177.69 15.4062 177.117L15.0584 169.928C15.0559 169.877 15.0566 169.826 15.0651 169.775C15.1403 169.329 15.4494 169.081 15.9922 169.031L32.0078 168.172C32.763 168.172 33.2448 168.536 33.4531 169.266L44.9054 214.931C45.1585 215.94 46.5921 215.94 46.8453 214.931L58.2188 169.617C58.375 168.888 58.8568 168.523 59.6641 168.523L74.9367 168.64C74.9892 168.64 75.0418 168.645 75.0934 168.654C75.3064 168.695 75.4725 168.749 75.5917 168.816C75.6531 168.851 75.715 168.887 75.7657 168.936C75.8698 169.036 75.9323 169.211 75.9531 169.461L76.3766 177.006C76.3807 177.08 76.3771 177.154 76.3633 177.227C76.3238 177.435 76.2776 177.596 76.2247 177.71C76.2023 177.759 76.181 177.809 76.1449 177.849C76.0666 177.934 75.9115 177.977 75.6797 177.977L71.9492 177.946C71.3688 177.942 70.9063 178.43 70.9431 179.01L73.4704 218.815C73.5044 219.351 73.9547 219.764 74.491 219.752L78.6092 219.659C78.6872 219.657 78.766 219.662 78.8396 219.688C79.1029 219.779 79.2671 219.978 79.3324 220.284C79.3485 220.359 79.3474 220.437 79.3391 220.514L78.6484 226.922C78.5443 227.547 78.3099 227.859 77.9453 227.859L62.5547 227.977Z" fill="#020887"/>
<path d="M140.391 228.016C139.818 227.964 139.531 227.547 139.531 226.766V220.242C139.531 219.826 139.609 219.539 139.766 219.383C139.948 219.227 140.26 219.135 140.703 219.109L143.525 219.232C143.98 219.252 144.39 218.962 144.524 218.528L159.766 169.109C159.922 168.615 160.234 168.341 160.703 168.289L169.57 167.977C170.039 168.003 170.365 168.302 170.547 168.875L187.185 218.287C187.325 218.706 187.724 218.982 188.165 218.968L190.977 218.875C191.706 218.927 192.07 219.344 192.07 220.125V226.297C192.07 226.74 191.979 227.026 191.797 227.156C191.615 227.286 191.302 227.352 190.859 227.352H172.773C172.305 227.352 172.031 227.247 171.953 227.039C171.875 226.831 171.836 226.544 171.836 226.18L172.617 220.477C172.669 220.034 172.773 219.747 172.93 219.617C173.086 219.461 173.372 219.383 173.789 219.383L176.906 219.301C177.573 219.283 178.036 218.629 177.831 217.994L175.102 209.553C174.971 209.147 174.597 208.869 174.171 208.861L156.322 208.5C155.866 208.491 155.461 208.791 155.338 209.231L152.776 218.404C152.587 219.082 153.138 219.738 153.838 219.668L157.109 219.344C157.422 219.344 157.63 219.409 157.734 219.539C157.865 219.669 157.956 219.904 158.008 220.242L158.583 226.072C158.59 226.144 158.59 226.216 158.579 226.287C158.522 226.671 158.409 226.935 158.242 227.078C158.086 227.234 157.812 227.326 157.422 227.352L140.391 228.016ZM157.736 200.576C157.558 201.213 158.038 201.844 158.699 201.844H171.2C171.88 201.844 172.361 201.18 172.15 200.533L165.402 179.871C165.095 178.93 163.753 178.959 163.488 179.913L157.736 200.576Z" fill="#020887"/>
<path d="M271.859 227.586C271.807 228.107 271.495 228.367 270.922 228.367L251.234 228.25C250.81 228.25 250.577 227.963 250.536 227.389C250.532 227.338 250.534 227.287 250.54 227.236L251.391 219.617C251.436 219.255 251.599 219.021 251.88 218.915C251.968 218.881 252.063 218.878 252.157 218.885L255.906 219.151C256.485 219.192 256.977 218.733 256.977 218.153V178.123C256.977 177.539 256.478 177.08 255.895 177.123C254.534 177.223 253.54 177.273 252.914 177.273C252.133 177.273 251.638 177.182 251.43 177C251.247 176.792 251.13 176.518 251.078 176.18L250.309 169.871C250.301 169.806 250.299 169.74 250.306 169.676C250.379 169.033 250.689 168.662 251.234 168.562C259.047 167.755 266.768 167.352 274.398 167.352C285.049 167.352 291.677 170.75 294.281 177.547C295.193 179.865 295.648 182.456 295.648 185.32C295.648 188.159 295.31 190.542 294.633 192.469C293.982 194.37 293.057 196.01 291.859 197.391C289.746 199.826 286.953 201.501 283.481 202.416C282.801 202.596 282.461 203.384 282.837 203.978L291.964 218.401C292.164 218.716 292.522 218.894 292.894 218.863L299.131 218.334C299.179 218.33 299.227 218.329 299.276 218.334C300.087 218.406 300.492 218.847 300.492 219.656L300.531 225.789C300.531 227.169 300.049 227.885 299.086 227.938L287.992 228.211C287.471 228.211 287.068 227.951 286.781 227.43L273.857 203.683C273.684 203.367 273.356 203.168 272.996 203.16C270.707 203.11 268.6 203.005 266.677 202.843C266.085 202.794 265.574 203.26 265.578 203.854L265.681 218.507C265.684 219.057 266.131 219.5 266.681 219.5H270.961C271.378 219.5 271.586 219.747 271.586 220.242L271.859 227.586ZM275.883 175.555C273.929 175.555 270.716 175.772 266.244 176.207C265.729 176.257 265.339 176.692 265.343 177.209L265.485 194.813C265.489 195.34 265.901 195.774 266.427 195.8C268.405 195.897 270.45 195.945 272.562 195.945C275.01 195.945 277.029 195.776 278.617 195.438C280.232 195.073 281.625 194.5 282.797 193.719C285.323 192.026 286.586 189.409 286.586 185.867C286.586 182.299 285.688 179.695 283.891 178.055C282.12 176.388 279.451 175.555 275.883 175.555Z" fill="#020887"/>
<path d="M390.281 176.688C389.812 176.688 389.578 176.401 389.578 175.828L390.203 168.562C390.228 168.144 390.509 167.876 391.046 167.761C391.109 167.747 391.173 167.743 391.237 167.744L407.43 168.055C407.898 168.107 408.133 168.406 408.133 168.953L408.25 175.945C408.25 176.518 407.951 176.805 407.352 176.805L403.54 176.77C403.212 176.767 402.903 176.926 402.714 177.194L387.414 198.912C387.167 199.263 387.171 199.733 387.425 200.08L401.335 219.048C401.509 219.285 401.779 219.434 402.072 219.454L408.328 219.891C409.188 219.943 409.617 220.385 409.617 221.219L409.656 226.961C409.656 228.081 409.174 228.667 408.211 228.719L397.977 228.992C397.404 228.94 396.948 228.68 396.609 228.211L380.745 203.955C380.554 203.663 380.224 203.491 379.875 203.503L376.678 203.609C376.139 203.626 375.711 204.069 375.711 204.608V218.5C375.711 219.052 376.159 219.5 376.711 219.5H379.773C380.19 219.5 380.398 219.747 380.398 220.242L380.672 227.586C380.62 228.107 380.307 228.367 379.734 228.367L361.609 228.25C361.167 228.25 360.932 227.938 360.906 227.312L360.597 219.7C360.595 219.645 360.596 219.59 360.606 219.535C360.665 219.218 360.826 219.011 361.087 218.913C361.172 218.881 361.265 218.878 361.355 218.883L365.9 219.162C366.475 219.197 366.961 218.74 366.961 218.163V177.634C366.961 177.043 366.451 176.581 365.863 176.639L361.375 177.078C361.089 177.078 360.906 177.013 360.828 176.883C360.75 176.753 360.698 176.531 360.672 176.219L360.131 168.646C360.127 168.59 360.127 168.534 360.135 168.48C360.21 167.988 360.519 167.742 361.062 167.742L379.695 167.664C379.982 167.69 380.164 167.768 380.242 167.898C380.314 167.994 380.363 168.187 380.391 168.479C380.397 168.535 380.396 168.59 380.391 168.646L379.734 175.945C379.656 176.518 379.357 176.805 378.836 176.805L376.773 176.676C376.198 176.64 375.711 177.097 375.711 177.674V195.856C375.711 196.434 376.198 196.891 376.774 196.854L380.138 196.641C380.45 196.621 380.734 196.457 380.907 196.197L392.853 178.261C393.293 177.6 392.825 176.715 392.032 176.707L390.281 176.688Z" fill="#020887"/>
<path d="M515.965 229.589C515.967 229.66 515.964 229.731 515.948 229.799C515.831 230.329 515.565 230.594 515.148 230.594L507.805 230.438C507.232 230.438 506.945 230.099 506.945 229.422L506.9 228.034C506.882 227.484 506.423 227.052 505.872 227.067L471.984 228.016C471.385 228.016 471.073 227.703 471.047 227.078L471.281 219.891C471.281 219.562 471.429 219.335 471.724 219.209C471.841 219.159 471.971 219.157 472.097 219.174L475.646 219.657C476.249 219.739 476.785 219.268 476.781 218.659L476.485 178.357C476.48 177.773 475.979 177.317 475.398 177.368L471.555 177.703C471.086 177.703 470.852 177.417 470.852 176.844L471.281 169.734C471.333 169.24 471.646 168.966 472.219 168.914L511.242 167.43C512.023 167.482 512.414 167.833 512.414 168.484L511.633 182.742C511.633 183.341 511.424 183.641 511.008 183.641L504.445 183.406C504.081 183.38 503.859 183.289 503.781 183.133C503.703 182.977 503.651 182.729 503.625 182.391L503.426 176.689C503.407 176.13 502.932 175.696 502.374 175.726L485.876 176.598C485.339 176.626 484.92 177.074 484.929 177.611L485.172 193.802C485.18 194.374 485.665 194.821 486.235 194.785L504.367 193.641C505.018 193.641 505.37 193.94 505.422 194.539L505.695 201.102C505.643 201.701 505.37 202 504.875 202L486.267 202.259C485.714 202.267 485.272 202.722 485.281 203.275L485.523 219.107C485.532 219.666 485.998 220.11 486.557 220.091L505.636 219.455C506.187 219.437 506.619 218.976 506.602 218.425L506.477 214.305C506.529 213.341 507.076 212.833 508.117 212.781L514.445 212.977C515.044 213.029 515.344 213.263 515.344 213.68L515.965 229.589Z" fill="#020887"/>
<path d="M580.148 187.111C580.086 187.115 580.023 187.115 579.962 187.102C579.598 187.024 579.362 186.75 579.254 186.278C579.24 186.213 579.235 186.146 579.236 186.08L579.586 167.859C579.586 167.391 579.885 167.156 580.484 167.156L586.891 167.938C587.411 167.938 587.672 168.237 587.672 168.836C587.672 169.392 588.126 169.847 588.682 169.841L617.633 169.539L624.82 168.758C625.393 168.758 625.68 169.044 625.68 169.617L624.508 186.922C624.456 187.339 624.208 187.547 623.766 187.547L617.086 187.234C616.852 187.195 616.676 187.142 616.559 187.074C616.489 187.032 616.437 186.965 616.409 186.889C616.359 186.752 616.324 186.554 616.305 186.297L616.409 177.676C616.416 177.113 615.957 176.656 615.394 176.664L607.344 176.789C606.792 176.798 606.351 177.252 606.359 177.805L606.992 218.263C607 218.831 607.481 219.278 608.048 219.245L614.395 218.884C614.496 218.878 614.598 218.884 614.692 218.92C615.012 219.043 615.172 219.275 615.172 219.617L615.25 226.531C615.198 227.156 614.964 227.469 614.547 227.469L591.344 227.977C590.771 227.977 590.458 227.716 590.406 227.195L590.68 219.461C590.68 218.966 590.888 218.719 591.305 218.719L597.178 219.082C597.76 219.118 598.25 218.65 598.24 218.067L597.572 178.078C597.563 177.511 597.083 177.065 596.517 177.097L588.66 177.533C588.128 177.563 587.713 178.004 587.715 178.536L587.75 185.867C587.724 186.362 587.411 186.622 586.812 186.648L580.148 187.111Z" fill="#020887"/>
<path d="M656.47 180.594C644.984 180.31 639.333 200.004 637.375 209.941C638.026 208.242 639.541 206.492 640.436 205.405C642.757 202.582 645.405 200.936 648.724 199.782C653.537 198.108 659.506 195.922 661.684 190.7C663.816 185.589 662.193 180.736 656.47 180.594Z" fill="#020887"/>
<path d="M636.335 242.277C635.667 243.059 634.774 242.63 635.292 241.742C637.917 237.234 643.873 232.462 646.567 229.313C653.171 221.595 660.53 214.694 668.778 208.684C678.086 201.901 686.209 196.652 698.115 196.016C701.72 195.824 707.778 194.839 709.92 198.686C711.827 202.11 709.79 205.17 707.787 208.073C696.814 223.975 672.015 220.846 655.682 228.254C648.792 231.379 641.414 236.329 636.335 242.277Z" fill="#020887"/>
<path d="M637.375 209.941C639.333 200.004 644.984 180.31 656.47 180.594C662.193 180.736 663.816 185.589 661.684 190.7C659.506 195.922 653.537 198.108 648.724 199.782C645.405 200.936 642.757 202.582 640.436 205.405C639.541 206.492 638.026 208.242 637.375 209.941ZM637.375 209.941V209.941C637.292 210.155 637.33 210.166 637.375 209.941V209.941ZM32.2883 103.678C28.9461 104.263 25.756 104.34 22.718 103.908C19.7229 103.415 17.0242 102.467 14.6219 101.066C12.7371 99.9669 11.1265 98.638 9.78999 97.0796C9.51093 96.7542 9.0621 96.6217 8.66162 96.7747C8.31664 96.9064 7.99917 97.0331 7.74738 97.1336C7.62712 97.1816 7.52185 97.2236 7.43571 97.2574C6.09899 97.7808 5.08144 98.2063 3.80561 98.7491C3.75591 98.7703 3.70964 98.7903 3.66644 98.8089C3.10102 99.0535 3.06141 99.0706 2.73044 98.4331C2.66732 98.3115 2.59045 98.1815 2.51051 98.0464C2.29032 97.6741 2.04678 97.2623 2.00276 96.8772C1.95553 96.464 2.52554 95.8404 2.92344 95.4051C3.04585 95.2712 3.15202 95.155 3.21886 95.0683C4.37395 93.5706 5.77265 92.3828 7.28497 91.2519L7.5047 91.0874C8.18918 90.5746 8.87546 90.0605 9.59791 89.6017C9.6899 89.5433 9.78687 89.4923 9.88357 89.4414C10.0875 89.334 10.2904 89.2273 10.4426 89.0534C10.6981 88.7616 11.024 88.5449 11.35 88.3283C11.7075 88.0906 12.065 87.853 12.3294 87.5163C12.3945 87.4334 12.4804 87.3658 12.5641 87.2998C12.6514 87.2311 12.7363 87.1643 12.7926 87.0841C12.986 86.8093 12.9997 86.8281 13.104 86.9714C13.149 87.0331 13.2108 87.1181 13.3112 87.2126C13.5502 87.4374 13.757 87.6857 13.9648 87.9351C14.1055 88.104 14.2468 88.2735 14.3987 88.4367C14.4819 88.526 14.5698 88.6113 14.6576 88.6965C14.8603 88.8933 15.0629 89.09 15.2084 89.3366C15.4707 89.7814 14.3083 90.6034 13.7846 90.9737C13.6901 91.0406 13.6163 91.0928 13.5755 91.1253C13.5397 91.1539 13.4501 91.2136 13.33 91.2934V91.2934C13.0541 91.477 13.0902 91.8923 13.3571 92.0888C13.6492 92.3038 13.9093 92.5643 14.1373 92.8704C15.188 94.2405 16.5766 95.3906 18.3031 96.3208C21.8856 98.2508 26.3926 97.8496 30.0037 95.9763C39.6019 90.9974 37.5296 82.9869 33.1625 78.0241C30.1201 74.5665 25.3892 73.835 20.7673 73.1203C20.0959 73.0165 19.4269 72.913 18.7656 72.8016C15.907 72.32 12.9762 71.6148 11.3201 70.6121C7.32956 68.1493 4.94244 64.7087 4.15874 60.2903C3.59632 57.1194 3.94319 54.218 5.19935 51.5859C6.50773 48.9447 8.53956 46.7394 11.2949 44.9701C14.0409 43.1488 17.3461 41.8995 21.2104 41.2221C24.0826 40.7186 26.7766 40.7288 29.2925 41.2525C31.7991 41.7243 34.0478 42.5629 36.0384 43.7682C38.0721 44.9125 39.794 46.2722 41.2041 47.8473V47.8473C41.3628 48.0227 41.6438 48.0193 41.7464 47.8062C41.8395 47.6128 41.9173 47.4099 41.9877 47.2263C42.0074 47.1749 42.0265 47.1251 42.0452 47.0774C42.0573 47.0465 42.0697 47.0153 42.0821 46.9838C42.2437 46.574 42.4266 46.1102 42.4428 45.6682C42.4487 45.5062 42.5358 45.6512 42.6287 45.8057C42.6777 45.8873 42.7284 45.9717 42.7695 46.0147C43.0971 46.3578 43.5897 46.609 44.015 46.8136C44.0689 46.8395 44.1384 46.8658 44.2139 46.8944C44.4414 46.9805 44.7244 47.0877 44.8057 47.2691C44.8691 47.4106 44.7372 47.6322 44.6324 47.8083C44.5932 47.874 44.5579 47.9334 44.5378 47.9799C44.3154 48.4967 44.1557 49.0443 43.996 49.5921C43.864 50.0452 43.7318 50.4985 43.5641 50.9345C43.0908 52.1647 42.5833 53.3822 42.076 54.5992C41.8456 55.152 41.6152 55.7048 41.388 56.2585C41.3622 56.3215 41.3364 56.3885 41.3098 56.4576C41.1176 56.9571 40.8832 57.5662 40.2951 57.5295C39.1905 57.4607 38.1032 57.2627 37.0372 56.9746C36.7967 56.9096 36.5611 56.8306 36.3257 56.7518C36.1041 56.6775 35.8827 56.6033 35.6575 56.5409C35.595 56.5235 35.4831 56.5168 35.3564 56.5093C35.0831 56.493 34.7409 56.4725 34.6766 56.3323C34.645 56.2634 34.8477 56.1 34.9563 56.0125C34.985 55.9893 35.0072 55.9714 35.0166 55.9621C35.4122 55.5693 35.7868 55.1695 36.1231 54.7237C36.5834 54.1136 36.8473 53.2826 36.9407 52.4559C36.9738 52.1622 36.8431 51.8813 36.6511 51.6566C36.6422 51.646 36.6332 51.6354 36.6243 51.6248C35.6289 50.5665 34.4385 49.6228 33.0531 48.7938C31.7106 47.9035 30.1485 47.293 28.3668 46.9621C26.5851 46.6313 24.5147 46.6458 22.1555 47.0057C18.0301 47.7289 14.8708 49.1938 12.6777 51.4006C10.4754 53.5553 9.66928 56.2961 10.2594 59.6229C10.5728 61.3903 11.3333 62.9453 12.5406 64.288C13.7387 65.5787 15.5051 66.5822 17.8398 67.2985C20.2175 67.9537 23.2801 68.2208 27.0278 68.0999C33.7213 67.8913 38.9067 69.0459 42.5839 71.5636C46.3041 74.0201 48.5975 77.6915 49.4642 82.5777C49.9621 85.3847 49.8824 87.9714 49.2253 90.3377C48.6203 92.6948 47.5116 94.7919 45.899 96.6289C44.3294 98.4047 42.3605 99.9022 39.9922 101.121C37.6762 102.331 35.1082 103.183 32.2883 103.678ZM64.4678 46.8699C68.7807 46.1139 71.4105 48.4046 72.3572 53.742C72.581 55.0038 72.8412 56.6406 73.138 58.6523L73.7413 62.9432C73.8639 63.8041 73.9716 64.6227 74.0642 65.399L74.193 66.3599C74.2729 66.9555 74.8564 67.3467 75.4377 67.1943L75.6354 67.1425C76.1111 67.0292 76.6498 66.8899 77.2514 66.7246C77.5574 66.671 77.7349 66.7819 77.7837 67.0575L78 70.5639C78.0026 70.8326 77.8681 71.0057 77.5964 71.0832L71.3495 72.582C71.1455 72.6178 71.0153 72.4761 70.9587 72.157L70.946 71.9302C70.8965 71.0461 69.7745 70.6303 69.0811 71.181C67.3851 72.5278 65.4838 73.3859 63.3773 73.7551C61.148 74.1459 59.1977 73.8223 57.5263 72.7843C55.7545 71.6891 54.6642 69.9885 54.2551 67.6824C53.7226 64.6802 54.3901 62.3873 56.2576 60.8037C57.9031 59.4086 60.8313 58.342 65.0421 57.6039C65.6188 57.5028 66.2225 57.4068 66.8533 57.3157C67.4027 57.2364 67.7928 56.7302 67.6972 56.1834C67.6941 56.1657 67.691 56.1482 67.6879 56.1307L67.5413 55.304C67.0396 52.4758 65.543 51.28 63.0515 51.7168C61.9138 51.9162 60.5942 52.4582 59.0926 53.3429C58.7092 53.5688 58.5364 54.0285 58.6597 54.456L58.6856 54.5458C58.7637 54.8162 58.8168 55.0312 58.8451 55.1908C58.9017 55.5099 58.7697 55.6975 58.4492 55.7537L54.8568 56.4491C54.7971 56.4606 54.7363 56.4688 54.676 56.4616C54.4576 56.4355 54.314 56.3031 54.2451 56.0644L52.77 49.9074C52.7082 49.5594 52.8338 49.3355 53.1466 49.2358L56.7116 48.1173C57.0176 48.0637 57.1989 48.1964 57.2555 48.5155L57.2793 48.6497C57.4124 49.4 58.3057 49.7347 58.9321 49.3006C60.8121 47.9975 62.6574 47.1873 64.4678 46.8699ZM64.1779 69.3752C65.7001 69.1083 67.2905 68.4223 68.9492 67.317C69.2615 67.1088 69.419 66.7364 69.3621 66.3654C69.2401 65.5708 69.0984 64.7183 68.9369 63.8078C68.8023 62.989 68.6725 62.1768 68.5476 61.3712C68.4616 60.8162 67.9367 60.4378 67.3852 60.5438C64.1012 61.1747 61.8358 61.9055 60.5891 62.7363C59.3275 63.5855 58.8228 64.7208 59.0749 66.1422C59.5482 68.8109 61.2492 69.8885 64.1779 69.3752ZM93.0941 47.4152C91.3673 47.7179 89.5287 48.7173 87.5781 50.4136C87.3141 50.6432 87.1988 50.9984 87.2668 51.3416L89.5189 62.7041C89.6329 63.2795 90.2155 63.6336 90.7788 63.47L92.0669 63.0957C92.3146 63.0523 92.4604 63.1539 92.5041 63.4005L92.687 66.8454C92.6853 67.1747 92.5533 67.3623 92.291 67.4083L83.1772 69.0058C82.9441 69.0467 82.7966 68.8931 82.7349 68.545L82.5816 65.1398C82.5859 64.825 82.7191 64.6446 82.9814 64.5986L83.8522 64.446C84.3969 64.3505 84.7607 63.8309 84.6641 63.2864L82.4583 50.8499C82.3637 50.3169 81.8622 49.9559 81.3267 50.0354L78.9291 50.3917C78.6377 50.4427 78.4611 50.2942 78.3994 49.9461L78.1252 46.1135C78.1106 45.8618 78.2585 45.6789 78.5687 45.5647L84.3949 43.6345C84.4413 43.6192 84.4886 43.6054 84.5374 43.6035C84.7568 43.5949 84.8932 43.7414 84.9467 44.0429L85.1945 45.44C85.3498 46.3157 86.5079 46.5823 87.0932 45.9125C89.1475 43.5617 91.3401 42.182 93.6709 41.7734C96.993 41.1911 99.2537 42.4174 100.453 45.4523C100.842 46.4608 101.118 47.4219 101.28 48.3357C101.439 49.2349 101.567 49.9976 101.663 50.6238C101.757 51.2355 101.854 51.9138 101.957 52.6586L102.314 54.9288C102.427 55.7317 102.539 56.5345 102.651 57.3373L102.973 59.6587C103.019 59.9965 103.063 60.3224 103.105 60.6364C103.183 61.2182 103.741 61.6104 104.315 61.4841L105.742 61.1697C106.048 61.1161 106.232 61.2633 106.294 61.6114L106.861 64.8094C106.892 64.9835 106.869 65.1072 106.792 65.1805C106.727 65.2368 106.608 65.2875 106.436 65.3327L100.182 66.9223C99.8618 66.9785 99.6732 66.847 99.6166 66.528C99.3799 64.9394 99.1381 63.4489 98.8911 62.0566L98.2904 58.4157C98.1077 57.386 97.9367 56.4215 97.7772 55.5222L97.071 51.541C96.752 49.7425 96.3958 48.6235 96.0023 48.184C95.6063 47.73 95.1902 47.459 94.7539 47.371C94.3176 47.283 93.7644 47.2977 93.0941 47.4152ZM56.5174 113.768C55.9872 109.827 55.2583 105.92 54.6857 101.984C54.5775 101.24 53.7266 100.872 53.1238 101.321C50.755 103.087 47.3519 105.724 45.3228 106.739C40.773 109.016 36.0067 111.289 30.9939 112.327C27.2767 113.097 23.784 112.708 20.1409 111.781C19.8335 111.702 18.0309 111.055 16.9032 110.822C15.8572 110.605 16.6301 111.825 17.2909 112.661C17.7077 113.188 18.1587 113.7 18.6168 114.177C19.4038 114.997 20.2467 115.72 21.0526 116.519C24.0385 118.826 26.2202 119.445 28.635 120.939C31.2461 122.555 34.2633 123.936 37.2724 124.607C40.5766 125.344 44.1475 126.521 47.5559 126.567C49.9994 126.599 52.5133 126.454 54.9501 126.241C55.7353 126.172 56.395 125.987 57.1532 125.854C57.7223 125.755 57.6833 124.318 57.6818 123.952C57.6681 120.569 56.9671 117.111 56.5174 113.768ZM60.9603 85.8053C62.2353 85.4486 63.4001 85.1359 64.4548 84.8673C65.0232 84.7225 65.5896 85.1021 65.6782 85.682L70.84 119.446C70.9265 120.012 70.5214 120.535 69.9519 120.592L67.5212 120.837C67.4271 120.847 67.3323 120.866 67.2525 120.916C67.0455 121.048 66.9496 121.264 66.9648 121.564L67.5959 127.409C67.7065 127.905 67.9495 128.132 68.3249 128.089C73.7979 127.69 79.7909 126.92 86.3039 125.778C92.5109 124.69 96.9899 121.673 99.7407 116.727C102.62 111.489 103.298 104.573 101.773 95.9799C100.16 86.8861 97.1818 80.7011 92.8373 77.4249C89.0881 74.5827 83.957 73.7324 77.444 74.874L76.0671 75.1154C75.5862 75.1997 75.0308 75.3083 74.4009 75.4411C73.7889 75.5484 73.0587 75.6876 72.2102 75.8588C71.3797 76.0044 70.3653 76.1934 69.1671 76.4258C67.9908 76.6545 66.5978 76.9323 64.9882 77.2593C63.4179 77.5789 61.5698 77.9473 59.4437 78.3643C59.3965 78.3736 59.3496 78.386 59.3046 78.403C59.0848 78.486 58.9223 78.5775 58.8172 78.6775C58.7296 78.7532 58.6911 78.9013 58.7017 79.122C58.7042 79.1749 58.7139 79.2273 58.7271 79.2786L60.2429 85.1908C60.311 85.4481 60.3875 85.6253 60.4724 85.7226C60.5573 85.8199 60.7199 85.8475 60.9603 85.8053ZM82.7472 119.066C82.063 119.186 81.0298 119.322 79.6476 119.473C79.1226 119.53 78.6454 119.166 78.5587 118.645L72.7534 83.7432C72.6672 83.2249 72.9968 82.7279 73.5087 82.6093C75.6576 82.1118 77.6908 81.695 79.6083 81.3589C80.8759 81.1367 82.3486 81.1813 84.0264 81.4929C89.2244 82.466 92.7186 87.9999 94.5091 98.0945C95.5896 104.186 95.3528 108.95 93.7987 112.385C92.2665 115.816 89.2821 117.921 84.8454 118.699L82.7472 119.066ZM113.668 117.211C113.464 117.247 113.331 117.09 113.269 116.742L112.686 113.457C112.638 113.182 112.73 113.023 112.963 112.983L114.61 112.694C115.15 112.599 115.513 112.087 115.424 111.546L113.212 98.1824C113.127 97.6737 112.67 97.3124 112.156 97.3482L109.457 97.5358C109.189 97.5528 109.03 97.4162 108.978 97.1262L108.823 93.4522C108.835 93.1809 108.982 92.998 109.266 92.9034L116.154 90.9557C116.315 90.9276 116.424 90.9532 116.484 91.0326C116.54 91.0975 116.591 91.2156 116.637 91.3871L117.623 95.2968L120.288 110.681C120.383 111.226 120.901 111.591 121.446 111.496L122.951 111.232C123.184 111.191 123.325 111.308 123.374 111.584L123.486 114.503C123.488 114.682 123.457 114.807 123.395 114.878C123.344 114.931 123.225 114.982 123.039 115.03L113.668 117.211ZM115.155 86.0837C114.917 86.3498 114.571 86.5599 114.118 86.7142C113.664 86.8684 113.11 87.003 112.454 87.118C111.813 87.2303 111.311 87.2809 110.949 87.2697C110.601 87.2559 110.308 87.1726 110.07 87.0198C109.674 86.7305 109.397 86.1435 109.24 85.2587C109.083 84.374 109.015 83.7354 109.035 83.343C109.068 82.9335 109.196 82.597 109.419 82.3335C109.804 81.8772 110.507 81.5597 111.527 81.3809C112.561 81.1996 113.258 81.1073 113.618 81.104C113.976 81.0862 114.273 81.1537 114.511 81.3065C114.914 81.5498 115.197 82.1283 115.359 83.042C115.521 83.9557 115.587 84.6246 115.557 85.0486C115.527 85.4726 115.393 85.8176 115.155 86.0837ZM136.794 113.426C139.033 113.034 140.941 112.554 142.518 111.986C143.15 111.758 143.855 112.16 143.936 112.827L143.967 113.089C144.024 113.408 144.213 113.539 144.533 113.483L148.084 112.412C148.712 112.227 148.988 111.917 148.911 111.482C148.867 111.235 148.806 110.932 148.727 110.572L148.423 109.369C148.309 108.895 148.184 108.401 148.048 107.887C147.911 107.372 147.758 106.764 147.589 106.061C147.416 105.343 147.286 104.865 147.199 104.626C147.117 104.39 146.947 104.279 146.688 104.295C146.615 104.3 146.545 104.322 146.478 104.35L143.555 105.556C143.388 105.63 143.273 105.703 143.211 105.774C143.163 105.842 143.147 105.964 143.163 106.141L143.205 106.493C143.26 106.956 142.988 107.397 142.545 107.543C141.064 108.032 139.557 108.411 138.025 108.679C136.116 109.014 134.714 108.901 133.818 108.34C132.819 107.741 132.02 106.525 131.419 104.693C131.237 104.139 131.609 103.568 132.183 103.463C134.968 102.951 137.179 102.445 138.814 101.946C139.995 101.574 141.026 101.162 141.907 100.708C142.8 100.238 143.388 99.7833 143.671 99.3449C143.951 98.892 144.166 98.4953 144.316 98.155C144.773 97.0879 144.844 95.6697 144.53 93.9002C144.049 91.188 143.08 89.2793 141.622 88.174C140.164 87.0687 138.087 86.7523 135.391 87.2248C134.138 87.4444 133.017 87.7307 132.028 88.0835C129.175 89.107 127.284 90.8966 126.355 93.4522C125.548 95.7621 125.522 99.0491 126.279 103.313C126.999 107.374 128.217 110.219 129.933 111.847C131.578 113.413 133.865 113.94 136.794 113.426ZM139.213 97.5914C139.533 97.1914 139.69 96.7675 139.686 96.3196C139.694 95.8547 139.645 95.3249 139.539 94.7302C139.431 94.121 139.278 93.5946 139.079 93.1509C138.895 92.7047 138.642 92.3378 138.32 92.0502C137.629 91.4536 136.642 91.2677 135.359 91.4924C132.883 91.9266 131.339 92.8402 130.73 94.2331C130.222 95.369 130.095 97.102 130.351 99.4321C130.413 99.9978 130.951 100.379 131.509 100.267C135.95 99.3704 138.518 98.4787 139.213 97.5914ZM170.975 81.2565C171.368 81.1876 171.626 81.4116 171.748 81.9286L172.069 85.3941C172.092 85.6703 171.982 85.8447 171.741 85.9172C171.68 85.9356 171.616 85.9385 171.552 85.9374L170.686 85.9221C169.714 85.9049 169.237 87.2282 169.817 88.0075C170.301 88.6565 170.599 89.3004 170.712 89.9389C170.949 91.2733 170.982 92.5163 170.81 93.6679C170.651 94.8025 170.236 95.8098 169.566 96.69C168.216 98.4819 165.807 99.6818 162.34 100.29C161.299 100.472 160.32 100.557 159.402 100.546C158.909 100.54 158.451 100.858 158.383 101.345C158.316 101.823 158.311 102.226 158.37 102.556C158.46 103.063 158.56 103.42 158.672 103.624C158.783 103.829 158.96 103.978 159.202 104.07C159.639 104.247 160.258 104.266 161.059 104.126C161.875 103.983 162.636 103.827 163.343 103.658C165.178 103.247 166.649 102.944 167.756 102.75C168.878 102.553 169.916 102.558 170.869 102.765C171.836 102.969 172.651 103.327 173.313 103.84C174.602 104.84 175.42 106.319 175.768 108.277C176.192 110.67 175.584 112.788 173.943 114.631C172.14 116.667 169.345 118.017 165.557 118.681C162.395 119.235 160.007 119.242 158.394 118.702C156.588 118.092 155.519 116.851 155.188 114.98C154.903 113.377 155.214 111.554 156.121 109.511C156.368 108.954 156.09 108.301 155.607 107.929C154.927 107.405 154.496 106.636 154.316 105.622C154.097 104.383 154.445 102.835 155.363 100.98C155.638 100.424 155.385 99.7449 154.844 99.4414C152.874 98.3345 151.638 96.3633 151.135 93.5277C150.618 90.6124 151.192 88.2163 152.857 86.3392C154.346 84.6574 156.606 83.5509 159.637 83.0197C161.211 82.7438 162.657 82.5127 163.976 82.3264C167.054 81.8915 169.387 81.5349 170.975 81.2565ZM166.34 92.4775C166.397 91.8692 166.367 91.2315 166.248 90.5643C166.13 89.8972 165.919 89.2986 165.614 88.7688C165.322 88.2218 164.936 87.781 164.456 87.4465C163.427 86.7295 162.09 86.5153 160.443 86.8039C157.821 87.2636 156.266 88.4484 155.778 90.3584C155.614 91.0451 155.614 91.8453 155.776 92.759C156.303 95.7323 158.417 96.8945 162.118 96.2458C164.712 95.7912 166.119 94.5351 166.34 92.4775ZM166.969 107.329L161.011 108.553C160.721 108.604 160.447 108.646 160.188 108.681C159.75 108.739 159.378 109.055 159.315 109.493C159.17 110.485 159.179 111.436 159.34 112.345C159.541 113.477 160.124 114.182 161.09 114.461C162.058 114.755 163.3 114.769 164.816 114.504C166.331 114.238 167.487 113.938 168.284 113.604C169.084 113.284 169.74 112.915 170.251 112.497C171.269 111.63 171.683 110.66 171.493 109.587C171.331 108.673 171.028 108.068 170.585 107.772C169.748 107.201 168.542 107.054 166.969 107.329ZM178.083 92.9987C177.643 90.5186 177.482 88.4233 177.599 86.7129C177.728 84.9854 178.114 83.557 178.755 82.4277C179.953 80.3781 182.265 79.0532 185.689 78.453C188.079 78.0342 189.862 77.9683 191.04 78.2553C192.232 78.5398 193.195 78.9318 193.93 79.4311C194.679 79.9279 195.365 80.6153 195.986 81.4934C197.237 83.293 198.126 85.6795 198.653 88.6528C199.178 91.6115 199.372 93.9329 199.235 95.6169C199.112 97.2983 198.722 98.6977 198.064 99.815C196.833 101.855 194.491 103.178 191.038 103.783C187.425 104.417 184.64 104.007 182.685 102.556C180.456 100.913 178.922 97.7269 178.083 92.9987ZM194.167 97.1557C194.501 96.499 194.685 95.6293 194.718 94.5467C194.752 93.4641 194.634 92.1687 194.367 90.6603C194.099 89.1519 193.803 87.9476 193.478 87.0475C193.153 86.1473 192.791 85.4182 192.392 84.8601C192.004 84.285 191.583 83.8579 191.128 83.5787C190.67 83.2851 190.193 83.0921 189.695 82.9998C188.95 82.8613 188.001 82.893 186.85 83.0948C185.699 83.2965 184.797 83.5445 184.143 83.8385C183.489 84.1326 182.986 84.6021 182.635 85.2469C181.971 86.4999 181.934 88.7943 182.526 92.1301C183.367 96.8729 185.124 99.324 187.797 99.4837C188.617 99.5343 189.486 99.4792 190.404 99.3183C191.322 99.1574 192.092 98.9252 192.714 98.6217C193.348 98.3012 193.833 97.8125 194.167 97.1557ZM114.639 27.1258C113.756 27.2915 112.922 27.5719 112.071 27.8163C111.643 27.9391 111.399 28.3993 111.555 28.816V28.816C111.57 28.8581 111.582 28.9016 111.59 28.9458L111.786 30.0486C114.175 43.4626 117.256 58.9647 119.639 72.3609C119.686 72.6224 119.855 72.8032 120.12 72.7845C123.661 72.5355 148.645 67.3012 161.13 65.1126L188.654 60.2879C189.127 60.205 191.689 60.056 191.286 59.4579C190.796 58.7303 190.345 57.9567 189.804 57.2651C189.174 56.46 188.709 55.3412 188.003 54.6305C186.064 52.6805 184.707 50.8597 182.399 49.2511C181.611 48.7016 180.847 48.1475 180.1 47.5813C177.125 45.3278 174.402 42.6186 171.151 40.7808C169.228 39.6931 168.495 38.8166 164.613 36.6027C152.545 29.7198 137.46 27.2352 123.699 27.0313C120.723 26.9872 117.572 26.5758 114.639 27.1258ZM278.141 9.8125L277.054 24.0873C277.049 24.1539 277.05 24.2212 277.061 24.2871C277.177 25.0062 277.541 25.4558 278.154 25.6358C278.248 25.6633 278.346 25.6678 278.444 25.6599L287.755 24.9012C288.34 24.8536 288.84 25.318 288.836 25.9052L288.226 110.334C288.222 110.902 287.746 111.352 287.179 111.325L278.454 110.91C278.401 110.908 278.348 110.909 278.296 110.916C277.411 111.043 276.969 111.613 276.969 112.625L277.828 126.844C277.875 127.404 278.005 127.797 278.219 128.022C278.268 128.073 278.328 128.11 278.393 128.139C278.685 128.268 279.092 128.378 279.611 128.469C279.672 128.479 279.734 128.484 279.796 128.483L326.5 127.547C327.073 127.547 327.438 127.417 327.594 127.156C327.75 126.896 327.854 126.427 327.906 125.75L327.047 112C326.943 110.854 326.344 110.281 325.25 110.281L306.166 111.391C305.587 111.424 305.1 110.959 305.108 110.379L305.549 77.4656C305.556 76.9085 306.018 76.4649 306.575 76.4793L344.859 77.4688C346.161 77.4688 346.865 76.8698 346.969 75.6719L347.516 63.0156C347.516 62.026 347.047 61.5312 346.109 61.5312L306.816 61.6836C306.256 61.6857 305.804 61.2283 305.812 60.6689L306.329 25.5133C306.337 24.9558 306.799 24.5128 307.357 24.5284L336.096 25.3328C336.629 25.3477 337.056 25.7778 337.068 26.3106L337.281 36.1406C337.385 38.1719 338.479 39.1875 340.562 39.1875L354.781 38.0156C355.979 37.9115 356.578 37.4427 356.578 36.6094L352.359 3.79688C352.151 2.59896 351.604 2 350.719 2L338.375 3.09375C337.229 3.25 336.656 3.92708 336.656 5.125L336.715 8.22281C336.725 8.79151 336.26 9.25462 335.692 9.24141L279.547 7.9375C278.661 7.9375 278.193 8.5625 278.141 9.8125ZM407.828 111.688C408.661 111.688 409.078 112.182 409.078 113.172L408.844 127.078C408.844 128.12 408.219 128.641 406.969 128.641L370.719 127.625C369.833 127.625 369.365 127 369.312 125.75L368.691 112.007C368.689 111.95 368.691 111.894 368.699 111.838C368.812 111.108 369.179 110.653 369.799 110.472C369.89 110.446 369.985 110.441 370.08 110.448L379.717 111.141C380.299 111.183 380.793 110.72 380.789 110.136L380.179 27.1261C380.175 26.5795 379.733 26.1374 379.186 26.1334L369.469 26.0625C368.531 26.0625 368.062 25.4896 368.062 24.3438L369.312 10.5938C369.365 9.96875 369.521 9.57812 369.781 9.42188C370.077 9.22489 370.512 9.07447 371.087 8.97061C371.154 8.95853 371.222 8.95444 371.29 8.95706L407.672 10.3594C408.245 10.4115 408.609 10.5677 408.766 10.8281C408.922 11.0365 409.026 11.4792 409.078 12.1562L408.531 24.5781C408.427 25.724 407.828 26.2969 406.734 26.2969H398.591C398.04 26.2969 397.593 26.7429 397.591 27.2941L397.362 110.685C397.361 111.238 397.809 111.688 398.362 111.688H407.828ZM484 125.594C479.625 127.052 474.104 127.781 467.438 127.781C461.086 127.781 453.6 127.025 444.979 125.512C444.329 125.398 443.744 125.929 443.802 126.587L444.234 131.531C444.234 132.469 443.635 132.938 442.438 132.938L429 133.328C427.021 133.224 425.927 132.208 425.719 130.281L422.75 100.047C422.75 99.0052 423.375 98.4323 424.625 98.3281L439.938 96.9219C440.927 96.9219 441.474 97.5208 441.578 98.7188L442.527 110.546C442.566 111.027 442.941 111.411 443.421 111.46C450.643 112.184 457.841 112.547 465.016 112.547C472.464 112.547 477.672 111.297 480.641 108.797C483.609 106.245 485.094 102.417 485.094 97.3125C485.094 92.7292 483.349 88.9792 479.859 86.0625C478.036 84.5 475.667 82.9635 472.75 81.4531L451.344 71.0625C443.792 67.4688 438.609 64.6042 435.797 62.4688C432.984 60.2812 430.823 58.1458 429.312 56.0625C426.292 51.8438 424.781 46.8958 424.781 41.2188C424.781 35.4896 425.667 30.6198 427.438 26.6094C429.208 22.5469 431.708 19.0573 434.938 16.1406C441.708 9.94271 450.302 6.84375 460.719 6.84375C468.035 6.84375 475.963 7.99058 484.503 10.2842C484.684 10.333 484.879 10.3297 485.058 10.2751C491.564 8.30002 495.638 7.3125 497.281 7.3125C499 7.3125 499.911 8.01562 500.016 9.42188L498.453 41.8438C498.349 43.0417 497.932 43.6406 497.203 43.6406L484.078 43.1719C483.349 43.1198 482.906 42.9375 482.75 42.625C482.594 42.3125 482.49 41.8177 482.438 41.1406L481.84 24.7155C481.824 24.2653 481.508 23.881 481.069 23.7805C475.201 22.4372 470.293 21.7656 466.344 21.7656C455.979 21.7656 448.922 24.6562 445.172 30.4375C443.818 32.5208 443.141 34.9948 443.141 37.8594C443.141 40.6719 443.818 43.0156 445.172 44.8906C446.526 46.7656 448.479 48.5365 451.031 50.2031C453.583 51.8177 456.708 53.4583 460.406 55.125L473.219 60.9844C485.25 66.5573 493.271 71.5312 497.281 75.9062C501.656 80.6458 503.844 87.2865 503.844 95.8281C503.844 111.193 497.229 121.115 484 125.594ZM560.719 109.344C561.552 109.344 561.969 109.839 561.969 110.828L560.953 125.516C560.849 126.557 560.224 127.078 559.078 127.078L522.828 127.625C521.943 127.625 521.474 127 521.422 125.75L521.578 111.922C521.578 111.183 521.951 110.701 522.696 110.474C522.783 110.448 522.874 110.439 522.965 110.441L530.159 110.643C530.723 110.659 531.188 110.207 531.188 109.643V27.2263C531.188 26.6711 530.735 26.2222 530.18 26.2263L520.797 26.2969C520.224 26.2969 519.859 26.1667 519.703 25.9062C519.547 25.6458 519.443 25.2031 519.391 24.5781L518.688 10.8281C518.74 10.2031 518.896 9.8125 519.156 9.65625C519.454 9.458 519.893 9.30691 520.473 9.20298C520.532 9.19233 520.593 9.18799 520.653 9.18896L559.547 9.8125C560.484 9.91667 560.953 10.5156 560.953 11.6094L560.641 25.3594C560.641 26.5052 560.042 27.0781 558.844 27.0781L549.66 26.5874C549.089 26.5569 548.608 27.0114 548.607 27.5837L548.534 60.0472C548.532 60.6054 548.988 61.0566 549.546 61.0494L589.888 60.5284C590.435 60.5213 590.875 60.0757 590.875 59.5285V25.7837C590.875 25.2428 590.445 24.7999 589.904 24.7842L580.172 24.5C579.599 24.5 579.234 24.3698 579.078 24.1094C578.922 23.849 578.818 23.4062 578.766 22.7812L579.234 9.8125C579.339 8.71875 579.964 8.17188 581.109 8.17188L617.594 8.01562C618.167 8.06771 618.531 8.22396 618.688 8.48438C618.844 8.69271 618.948 9.13542 619 9.8125L620.016 23.7969C620.016 24.9427 619.417 25.5156 618.219 25.5156L609.318 25.3054C608.757 25.2921 608.296 25.7419 608.294 26.3024L608.065 111.042C608.064 111.608 608.532 112.063 609.098 112.045L620.094 111.688C620.927 111.688 621.344 112.182 621.344 113.172L620.328 127.078C620.224 128.12 619.599 128.641 618.453 128.641L581.422 127.625C580.536 127.625 580.068 127 580.016 125.75L580.172 112.703C580.172 111.972 580.537 111.492 581.267 111.262C581.369 111.23 581.476 111.223 581.582 111.231L589.801 111.842C590.381 111.885 590.875 111.426 590.875 110.845V77.3043C590.875 76.7491 590.423 76.3002 589.868 76.3043L549.443 76.6021C548.895 76.6061 548.452 77.0512 548.451 77.5997L548.377 109.129C548.376 109.709 548.868 110.169 549.447 110.128L560.719 109.344ZM62.5547 227.977C61.9818 227.977 61.6693 227.716 61.6172 227.195L61.8906 220.633C61.9427 220.138 62.151 219.891 62.5156 219.891H64.1563C64.7295 219.891 65.1853 219.41 65.1549 218.837L63.2324 182.727C63.1711 181.575 61.5311 181.425 61.2615 182.547L50.4062 227.703C50.3021 228.224 49.9896 228.484 49.4688 228.484L41.1875 228.602C40.7188 228.602 40.4193 228.315 40.2891 227.742L29.1357 184.544C28.846 183.422 27.199 183.608 27.1678 184.767L26.2555 218.584C26.2399 219.163 26.7191 219.635 27.2986 219.61L29.8203 219.5C30.1589 219.5 30.3672 219.747 30.4453 220.242L31.1001 227.098C31.1063 227.163 31.1074 227.228 31.0962 227.292C31.0162 227.748 30.7081 227.977 30.1719 227.977L13.2188 228.25C12.776 228.25 12.5417 227.938 12.5156 227.312L12.9844 220.008C13.0291 219.65 13.1889 219.417 13.4638 219.309C13.5575 219.272 13.6604 219.27 13.7608 219.279L17.7331 219.641C18.2972 219.692 18.7913 219.265 18.8221 218.699L21.0069 178.67C21.0403 178.058 20.5214 177.561 19.9121 177.62L16.2266 177.977C15.7057 177.977 15.4323 177.69 15.4062 177.117L15.0584 169.928C15.0559 169.877 15.0566 169.826 15.0651 169.775C15.1403 169.329 15.4494 169.081 15.9922 169.031L32.0078 168.172C32.763 168.172 33.2448 168.536 33.4531 169.266L44.9054 214.931C45.1585 215.94 46.5921 215.94 46.8453 214.931L58.2188 169.617C58.375 168.888 58.8568 168.523 59.6641 168.523L74.9367 168.64C74.9892 168.64 75.0418 168.645 75.0934 168.654C75.3064 168.695 75.4725 168.749 75.5917 168.816C75.6531 168.851 75.715 168.887 75.7657 168.936C75.8698 169.036 75.9323 169.211 75.9531 169.461L76.3766 177.006C76.3807 177.08 76.3771 177.154 76.3633 177.227C76.3238 177.435 76.2776 177.596 76.2247 177.71C76.2023 177.759 76.181 177.809 76.1449 177.849C76.0666 177.934 75.9115 177.977 75.6797 177.977L71.9492 177.946C71.3688 177.942 70.9063 178.43 70.9431 179.01L73.4704 218.815C73.5044 219.351 73.9547 219.764 74.491 219.752L78.6092 219.659C78.6872 219.657 78.766 219.662 78.8396 219.688C79.1029 219.779 79.2671 219.978 79.3324 220.284C79.3485 220.359 79.3474 220.437 79.3391 220.514L78.6484 226.922C78.5443 227.547 78.3099 227.859 77.9453 227.859L62.5547 227.977ZM140.391 228.016C139.818 227.964 139.531 227.547 139.531 226.766V220.242C139.531 219.826 139.609 219.539 139.766 219.383C139.948 219.227 140.26 219.135 140.703 219.109L143.525 219.232C143.98 219.252 144.39 218.962 144.524 218.528L159.766 169.109C159.922 168.615 160.234 168.341 160.703 168.289L169.57 167.977C170.039 168.003 170.365 168.302 170.547 168.875L187.185 218.287C187.325 218.706 187.724 218.982 188.165 218.968L190.977 218.875C191.706 218.927 192.07 219.344 192.07 220.125V226.297C192.07 226.74 191.979 227.026 191.797 227.156C191.615 227.286 191.302 227.352 190.859 227.352H172.773C172.305 227.352 172.031 227.247 171.953 227.039C171.875 226.831 171.836 226.544 171.836 226.18L172.617 220.477C172.669 220.034 172.773 219.747 172.93 219.617C173.086 219.461 173.372 219.383 173.789 219.383L176.906 219.301C177.573 219.283 178.036 218.629 177.831 217.994L175.102 209.553C174.971 209.147 174.597 208.869 174.171 208.861L156.322 208.5C155.866 208.491 155.461 208.791 155.338 209.231L152.776 218.404C152.587 219.082 153.138 219.738 153.838 219.668L157.109 219.344C157.422 219.344 157.63 219.409 157.734 219.539C157.865 219.669 157.956 219.904 158.008 220.242L158.583 226.072C158.59 226.144 158.59 226.216 158.579 226.287C158.522 226.671 158.409 226.935 158.242 227.078C158.086 227.234 157.812 227.326 157.422 227.352L140.391 228.016ZM271.859 227.586C271.807 228.107 271.495 228.367 270.922 228.367L251.234 228.25C250.81 228.25 250.577 227.963 250.536 227.389C250.532 227.338 250.534 227.287 250.54 227.236L251.391 219.617C251.436 219.255 251.599 219.021 251.88 218.915C251.968 218.881 252.063 218.878 252.157 218.885L255.906 219.151C256.485 219.192 256.977 218.733 256.977 218.153V178.123C256.977 177.539 256.478 177.08 255.895 177.123C254.534 177.223 253.54 177.273 252.914 177.273C252.133 177.273 251.638 177.182 251.43 177C251.247 176.792 251.13 176.518 251.078 176.18L250.309 169.871C250.301 169.806 250.299 169.74 250.306 169.676C250.379 169.033 250.689 168.662 251.234 168.562C259.047 167.755 266.768 167.352 274.398 167.352C285.049 167.352 291.677 170.75 294.281 177.547C295.193 179.865 295.648 182.456 295.648 185.32C295.648 188.159 295.31 190.542 294.633 192.469C293.982 194.37 293.057 196.01 291.859 197.391C289.746 199.826 286.953 201.501 283.481 202.416C282.801 202.596 282.461 203.384 282.837 203.978L291.964 218.401C292.164 218.716 292.522 218.894 292.894 218.863L299.131 218.334C299.179 218.33 299.227 218.329 299.276 218.334C300.087 218.406 300.492 218.847 300.492 219.656L300.531 225.789C300.531 227.169 300.049 227.885 299.086 227.938L287.992 228.211C287.471 228.211 287.068 227.951 286.781 227.43L273.857 203.683C273.684 203.367 273.356 203.168 272.996 203.16C270.707 203.11 268.6 203.005 266.677 202.843C266.085 202.794 265.574 203.26 265.578 203.854L265.681 218.507C265.684 219.057 266.131 219.5 266.681 219.5H270.961C271.378 219.5 271.586 219.747 271.586 220.242L271.859 227.586ZM275.883 175.555C273.929 175.555 270.716 175.772 266.244 176.207C265.729 176.257 265.339 176.692 265.343 177.209L265.485 194.813C265.489 195.34 265.901 195.774 266.427 195.8C268.405 195.897 270.45 195.945 272.562 195.945C275.01 195.945 277.029 195.776 278.617 195.438C280.232 195.073 281.625 194.5 282.797 193.719C285.323 192.026 286.586 189.409 286.586 185.867C286.586 182.299 285.688 179.695 283.891 178.055C282.12 176.388 279.451 175.555 275.883 175.555ZM390.281 176.688C389.812 176.688 389.578 176.401 389.578 175.828L390.203 168.562C390.228 168.144 390.509 167.876 391.046 167.761C391.109 167.747 391.173 167.743 391.237 167.744L407.43 168.055C407.898 168.107 408.133 168.406 408.133 168.953L408.25 175.945C408.25 176.518 407.951 176.805 407.352 176.805L403.54 176.77C403.212 176.767 402.903 176.926 402.714 177.194L387.414 198.912C387.167 199.263 387.171 199.733 387.425 200.08L401.335 219.048C401.509 219.285 401.779 219.434 402.072 219.454L408.328 219.891C409.188 219.943 409.617 220.385 409.617 221.219L409.656 226.961C409.656 228.081 409.174 228.667 408.211 228.719L397.977 228.992C397.404 228.94 396.948 228.68 396.609 228.211L380.745 203.955C380.554 203.663 380.224 203.491 379.875 203.503L376.678 203.609C376.139 203.626 375.711 204.069 375.711 204.608V218.5C375.711 219.052 376.159 219.5 376.711 219.5H379.773C380.19 219.5 380.398 219.747 380.398 220.242L380.672 227.586C380.62 228.107 380.307 228.367 379.734 228.367L361.609 228.25C361.167 228.25 360.932 227.938 360.906 227.312L360.597 219.7C360.595 219.645 360.596 219.59 360.606 219.535C360.665 219.218 360.826 219.011 361.087 218.913C361.172 218.881 361.265 218.878 361.355 218.883L365.9 219.162C366.475 219.197 366.961 218.74 366.961 218.163V177.634C366.961 177.043 366.451 176.581 365.864 176.639L361.375 177.078C361.089 177.078 360.906 177.013 360.828 176.883C360.75 176.753 360.698 176.531 360.672 176.219L360.131 168.646C360.127 168.59 360.127 168.534 360.135 168.48C360.21 167.988 360.519 167.742 361.062 167.742L379.695 167.664C379.982 167.69 380.164 167.768 380.242 167.898C380.314 167.994 380.363 168.187 380.391 168.479C380.397 168.535 380.396 168.59 380.391 168.646L379.734 175.945C379.656 176.518 379.357 176.805 378.836 176.805L376.773 176.676C376.198 176.64 375.711 177.097 375.711 177.674V195.856C375.711 196.434 376.198 196.891 376.774 196.854L380.138 196.641C380.45 196.621 380.734 196.457 380.907 196.197L392.853 178.261C393.293 177.6 392.825 176.715 392.032 176.707L390.281 176.688ZM515.148 230.594C515.565 230.594 515.831 230.329 515.948 229.799C515.963 229.731 515.967 229.66 515.965 229.589L515.344 213.68C515.344 213.263 515.044 213.029 514.445 212.977L508.117 212.781C507.076 212.833 506.529 213.341 506.477 214.305L506.602 218.425C506.619 218.976 506.187 219.437 505.636 219.455L486.557 220.091C485.998 220.11 485.532 219.666 485.523 219.107L485.281 203.275C485.272 202.722 485.714 202.267 486.267 202.259L504.875 202C505.37 202 505.643 201.701 505.695 201.102L505.422 194.539C505.37 193.94 505.018 193.641 504.367 193.641L486.235 194.785C485.665 194.821 485.18 194.374 485.172 193.802L484.929 177.611C484.92 177.074 485.339 176.626 485.876 176.598L502.374 175.726C502.932 175.696 503.407 176.13 503.426 176.689L503.625 182.391C503.651 182.729 503.703 182.977 503.781 183.133C503.859 183.289 504.081 183.38 504.445 183.406L511.008 183.641C511.424 183.641 511.633 183.341 511.633 182.742L512.414 168.484C512.414 167.833 512.023 167.482 511.242 167.43L472.219 168.914C471.646 168.966 471.333 169.24 471.281 169.734L470.852 176.844C470.852 177.417 471.086 177.703 471.555 177.703L475.398 177.368C475.979 177.317 476.48 177.773 476.485 178.357L476.781 218.659C476.785 219.268 476.249 219.739 475.646 219.657L472.097 219.174C471.971 219.157 471.841 219.159 471.724 219.209C471.429 219.335 471.281 219.562 471.281 219.891L471.047 227.078C471.073 227.703 471.385 228.016 471.984 228.016L505.872 227.067C506.423 227.052 506.882 227.484 506.9 228.034L506.945 229.422C506.945 230.099 507.232 230.438 507.805 230.438L515.148 230.594ZM579.586 167.859L579.236 186.08C579.235 186.146 579.24 186.213 579.254 186.278C579.362 186.75 579.598 187.024 579.962 187.102C580.023 187.115 580.086 187.115 580.148 187.111L586.812 186.648C587.411 186.622 587.724 186.362 587.75 185.867L587.715 178.536C587.713 178.004 588.128 177.563 588.66 177.533L596.517 177.097C597.083 177.065 597.563 177.511 597.572 178.078L598.24 218.067C598.249 218.65 597.76 219.118 597.178 219.082L591.305 218.719C590.888 218.719 590.68 218.966 590.68 219.461L590.406 227.195C590.458 227.716 590.771 227.977 591.344 227.977L614.547 227.469C614.964 227.469 615.198 227.156 615.25 226.531L615.172 219.617C615.172 219.275 615.012 219.043 614.692 218.92C614.598 218.884 614.496 218.878 614.395 218.884L608.048 219.245C607.481 219.278 607 218.831 606.992 218.263L606.359 177.805C606.351 177.252 606.791 176.798 607.344 176.789L615.394 176.664C615.957 176.656 616.416 177.113 616.409 177.676L616.305 186.297C616.324 186.554 616.359 186.752 616.409 186.889C616.437 186.965 616.489 187.032 616.559 187.074C616.676 187.142 616.852 187.195 617.086 187.234L623.766 187.547C624.208 187.547 624.456 187.339 624.508 186.922L625.68 169.617C625.68 169.044 625.393 168.758 624.82 168.758L617.633 169.539L588.682 169.841C588.126 169.847 587.672 169.392 587.672 168.836V168.836C587.672 168.237 587.411 167.938 586.891 167.938L580.484 167.156C579.885 167.156 579.586 167.391 579.586 167.859ZM646.567 229.313C643.873 232.462 637.917 237.234 635.292 241.742C634.774 242.63 635.667 243.059 636.335 242.277C641.414 236.329 648.792 231.379 655.682 228.254C672.015 220.846 696.814 223.975 707.787 208.073C709.79 205.17 711.827 202.11 709.92 198.686C707.778 194.839 701.72 195.824 698.115 196.016C686.209 196.652 678.086 201.901 668.778 208.684C660.53 214.694 653.171 221.595 646.567 229.313ZM165.402 179.871L172.15 200.533C172.361 201.18 171.88 201.844 171.2 201.844H158.699C158.038 201.844 157.558 201.213 157.736 200.576L163.488 179.913C163.753 178.959 165.095 178.93 165.402 179.871ZM250.105 91.2155C235.671 62.6391 231.68 44.2201 235.981 12.4034C236.123 11.3517 234.738 10.7961 234.135 11.6698L202.058 58.1944C201.747 58.6445 201.856 59.2603 202.302 59.5771L248.621 92.5103C249.477 93.1187 250.578 92.1527 250.105 91.2155Z" stroke="#020887" stroke-width="3" stroke-linecap="round"/>
</svg>
