<svg width="1011" height="182" viewBox="0 0 1011 182" fill="none" xmlns="http://www.w3.org/2000/svg">
<path d="M783.16 177.2C786.56 179.067 790.626 180 795.36 180C797.826 180 800.326 179.567 802.86 178.7C805.46 177.833 807.793 176.7 809.86 175.3C810.025 175.236 811.339 174.564 811.499 174.5C813.999 173.5 816.343 172.299 818.782 170.568C821.911 168.346 825.47 166.703 828.747 164.7C832.404 162.465 836.339 160.669 840.178 158.769C846.922 155.431 854.295 153.936 861.766 154.305C864.7 154.45 867.652 154.438 870.567 154.066C874.247 153.596 879.808 151.571 881.186 147.768C882.115 145.202 881.202 142.119 879.527 140.083C877.56 137.691 873.266 137.219 870.503 136.448C867.001 135.47 864.08 134.951 860.443 135.3C851.073 136.198 841.383 139.051 835.539 146.843C831.549 152.163 827.077 157.147 822.56 162.022C820.523 164.221 817.471 165.344 814.999 167C811.713 169.201 809.265 169.653 805.772 171.5C805.215 171.905 804.662 172.146 804.088 172.29C802.093 172.79 800.13 172.905 798.1 172.574V172.574C796.509 172.314 794.735 172.063 793.14 171.825C791.421 171.567 789.827 171.025 788.36 170.2C786.405 169.002 784.838 167.416 783.658 165.443L782.36 165.9L780.16 160.4L781.797 159.803C781.705 159.061 781.66 158.293 781.66 157.5C781.66 154.767 782.226 152.333 783.36 150.2C784.493 148.067 786.06 146.4 788.06 145.2C790.06 143.933 792.326 143.3 794.86 143.3C797.86 143.3 800.293 144.133 802.16 145.8C803.883 147.277 805.152 149.01 805.966 150.999L808.16 150.2L806.16 151.5C806.098 151.331 806.034 151.164 805.966 150.999L781.797 159.803C782.038 161.743 782.592 163.509 783.46 165.1C783.525 165.215 783.591 165.33 783.658 165.443L816.46 153.9C815.193 148.3 812.76 143.9 809.16 140.7C805.56 137.5 801.026 135.9 795.56 135.9C791.293 135.9 787.426 136.9 783.96 138.9C780.493 140.9 777.726 143.567 775.66 146.9C773.593 150.233 772.56 153.933 772.56 158C772.56 162.267 773.46 166.067 775.26 169.4C777.126 172.667 779.76 175.267 783.16 177.2Z" fill="#EEF5DB"/>
<path d="M51.4739 7.09991C50.6178 6.06823 49.8526 5.43356 49.066 4.93973C46.2623 3.17957 42.542 1.52328 39.3677 2.46294V2.46294C36.8192 3.21737 19.659 17.9552 16.5433 19.9109C14.0665 21.4655 6.23084 20.1492 4.1836 22.2374C0.940911 25.545 0.50492 31.1559 4.49992 33.5V33.5C8.54165 35.8716 13.7831 36.3893 18.1756 34.7566C29.4622 30.5612 41.1189 12.7 40.5 11L51.4739 7.09991Z" fill="#EEF5DB"/>
<path d="M40.5 11L68.1918 79.9966C68.513 80.8353 69.6913 80.8582 70.0449 80.0326L87.5583 39.1371L82.7683 26.9428L70.1304 59.6426L51.4739 7.09991L40.5 11Z" fill="#EEF5DB"/>
<path d="M83.6738 24.5999L88.1738 37.6999L87.5583 39.1371L103.525 79.7853C103.86 80.6369 105.068 80.6292 105.391 79.7734L132.362 8.45363C132.609 7.79946 132.126 7.09991 131.427 7.09991H123.286C122.86 7.09991 122.48 7.36999 122.341 7.77268L104.741 58.5943L105.874 61.4999L103.874 61.0999L104.741 58.5943L84.922 7.7368C84.7723 7.35278 84.4024 7.09991 83.9902 7.09991H76.441C75.7362 7.09991 75.2526 7.80951 75.5103 8.46553L82.7683 26.9428L83.6738 24.5999Z" fill="#EEF5DB"/>
<path d="M145.055 1.59991V78.9999H154.355V59.5999C154.355 56.5999 154.889 53.9332 155.955 51.5999C157.089 49.2666 158.622 47.4332 160.555 46.0999C162.489 44.6999 164.655 43.9999 167.055 43.9999C169.655 43.9999 171.555 44.7332 172.755 46.1999C174.022 47.5999 174.689 49.4332 174.755 51.6999V78.9999H184.155V48.3999C184.089 44.7332 182.789 41.7666 180.255 39.4999C177.789 37.1666 174.589 35.9999 170.655 35.9999C166.722 35.9999 163.289 36.8999 160.355 38.6999C157.622 40.4162 155.555 42.5568 154.155 45.1217V47.1999L153.955 45.4999C154.02 45.3728 154.087 45.2468 154.155 45.1217V1.59991H145.055Z" fill="#EEF5DB"/>
<path d="M207.329 77.1999C210.729 79.0666 214.795 79.9999 219.529 79.9999C221.995 79.9999 224.495 79.5666 227.029 78.6999C229.629 77.8332 231.962 76.6999 234.029 75.2999L229.729 68.3999C228.262 69.4666 226.662 70.3332 224.929 70.9999C223.262 71.6666 221.529 71.9999 219.729 71.9999C217.062 71.9999 214.662 71.3999 212.529 70.1999C210.574 69.0019 209.007 67.4162 207.828 65.4428L206.529 65.8999L204.329 60.3999L205.967 59.8032C205.875 59.061 205.829 58.2932 205.829 57.4999C205.829 54.7666 206.395 52.3332 207.529 50.1999C208.662 48.0666 210.229 46.3999 212.229 45.1999C214.229 43.9332 216.495 43.2999 219.029 43.2999C222.029 43.2999 224.462 44.1332 226.329 45.7999C228.052 47.2772 229.321 49.0102 230.135 50.999L232.329 50.1999L230.329 51.4999C230.267 51.3312 230.203 51.1642 230.135 50.999L205.967 59.8032C206.207 61.7432 206.761 63.5087 207.629 65.0999C207.694 65.2155 207.76 65.3298 207.828 65.4428L240.629 53.8999C239.362 48.2999 236.929 43.8999 233.329 40.6999C229.729 37.4999 225.195 35.8999 219.729 35.8999C215.462 35.8999 211.595 36.8999 208.129 38.8999C204.662 40.8999 201.895 43.5666 199.829 46.8999C197.762 50.2332 196.729 53.9332 196.729 57.9999C196.729 62.2666 197.629 66.0666 199.429 69.3999C201.295 72.6666 203.929 75.2666 207.329 77.1999Z" fill="#EEF5DB"/>
<path d="M261.307 47.2704L260.582 37.5999H252.282V78.9999H261.482V60.0999C261.482 57.4332 262.148 54.9332 263.482 52.5999C264.882 50.2666 266.748 48.3999 269.082 46.9999C271.482 45.5999 274.248 44.9999 277.382 45.1999L277.882 35.9999C276.215 35.9999 274.248 36.4999 271.982 37.4999C269.782 38.4332 267.648 39.7999 265.582 41.5999C263.777 43.1642 262.352 45.0544 261.307 47.2704L261.482 49.5999L260.982 47.9999C261.086 47.7529 261.194 47.5097 261.307 47.2704Z" fill="#EEF5DB"/>
<path d="M295.121 77.1999C298.521 79.0666 302.588 79.9999 307.321 79.9999C309.788 79.9999 312.288 79.5666 314.821 78.6999C317.421 77.8332 319.755 76.6999 321.821 75.2999L317.521 68.3999C316.055 69.4666 314.455 70.3332 312.721 70.9999C311.055 71.6666 309.321 71.9999 307.521 71.9999C304.855 71.9999 302.455 71.3999 300.321 70.1999C298.367 69.0019 296.8 67.4162 295.62 65.4428L294.321 65.8999L292.121 60.3999L293.759 59.8032C293.667 59.061 293.621 58.2932 293.621 57.4999C293.621 54.7666 294.188 52.3332 295.321 50.1999C296.455 48.0666 298.021 46.3999 300.021 45.1999C302.021 43.9332 304.288 43.2999 306.821 43.2999C309.821 43.2999 312.255 44.1332 314.121 45.7999C315.845 47.2772 317.114 49.0102 317.928 50.999L320.121 50.1999L318.121 51.4999C318.06 51.3312 317.995 51.1642 317.928 50.999L293.759 59.8032C293.999 61.7432 294.553 63.5087 295.421 65.0999C295.486 65.2155 295.553 65.3298 295.62 65.4428L328.421 53.8999C327.155 48.2999 324.721 43.8999 321.121 40.6999C317.521 37.4999 312.988 35.8999 307.521 35.8999C303.255 35.8999 299.388 36.8999 295.921 38.8999C292.455 40.8999 289.688 43.5666 287.621 46.8999C285.555 50.2332 284.521 53.9332 284.521 57.9999C284.521 62.2666 285.421 66.0666 287.221 69.3999C289.088 72.6666 291.721 75.2666 295.121 77.1999Z" fill="#EEF5DB"/>
<path d="M255.485 173.6C254.285 174.4 252.651 175.3 250.585 176.3C248.518 177.3 246.085 178.133 243.285 178.8C240.551 179.467 237.551 179.8 234.285 179.8C228.685 179.733 223.618 178.733 219.085 176.8C214.618 174.867 210.818 172.233 207.685 168.9C204.551 165.567 202.118 161.733 200.385 157.4C198.718 153 197.885 148.333 197.885 143.4C197.885 138 198.751 133.033 200.485 128.5C202.285 123.9 204.785 119.933 207.985 116.6C211.185 113.2 214.951 110.567 219.285 108.7C223.685 106.833 228.485 105.9 233.685 105.9C238.018 105.9 241.951 106.5 245.485 107.7C249.018 108.833 252.051 110.2 254.585 111.8L250.685 120.8C248.685 119.467 246.251 118.2 243.385 117C240.585 115.8 237.451 115.2 233.985 115.2C230.451 115.2 227.118 115.9 223.985 117.3C220.851 118.7 218.085 120.667 215.685 123.2C213.285 125.733 211.385 128.7 209.985 132.1C208.651 135.433 207.985 139.033 207.985 142.9C207.985 146.833 208.585 150.5 209.785 153.9C211.051 157.233 212.818 160.133 215.085 162.6C217.418 165.067 220.218 167 223.485 168.4C226.751 169.8 230.418 170.5 234.485 170.5C238.151 170.5 241.418 169.933 244.285 168.8C247.151 167.667 249.518 166.4 251.385 165L255.485 173.6Z" fill="#EEF5DB"/>
<path fill-rule="evenodd" clip-rule="evenodd" d="M265.918 157.9C265.918 153.767 266.885 150.033 268.818 146.7C270.818 143.367 273.551 140.733 277.018 138.8C280.485 136.867 284.418 135.9 288.818 135.9C293.351 135.9 297.318 136.867 300.718 138.8C304.118 140.733 306.751 143.367 308.618 146.7C310.484 150.033 311.418 153.767 311.418 157.9C311.418 162.033 310.484 165.8 308.618 169.2C306.751 172.533 304.084 175.167 300.618 177.1C297.218 179.033 293.251 180 288.718 180C284.318 180 280.385 179.1 276.918 177.3C273.518 175.433 270.818 172.867 268.818 169.6C266.885 166.267 265.918 162.367 265.918 157.9ZM277.018 165.3C275.818 163.1 275.218 160.667 275.218 158C275.218 155.4 275.785 153.033 276.918 150.9C278.118 148.7 279.718 146.933 281.718 145.6C283.784 144.267 286.084 143.6 288.618 143.6C291.218 143.6 293.518 144.267 295.518 145.6C297.584 146.867 299.184 148.6 300.318 150.8C301.451 152.933 302.018 155.333 302.018 158C302.018 160.667 301.451 163.1 300.318 165.3C299.184 167.433 297.584 169.133 295.518 170.4C293.518 171.667 291.218 172.3 288.618 172.3C286.151 172.3 283.884 171.667 281.818 170.4C279.818 169.133 278.218 167.433 277.018 165.3Z" fill="#EEF5DB"/>
<path d="M332.993 145.542L332.31 137.6H324.01V179H333.31V159.4C333.31 156.733 333.81 154.233 334.81 151.9C335.877 149.567 337.343 147.667 339.21 146.2C341.077 144.733 343.243 144 345.71 144C348.11 144.133 349.81 144.933 350.81 146.4C351.877 147.8 352.443 149.567 352.51 151.7V179H361.81V159.3C361.877 156.633 362.443 154.167 363.51 151.9C364.577 149.567 366.043 147.667 367.91 146.2C369.843 144.733 372.01 144 374.41 144C376.81 144.133 378.477 144.933 379.41 146.4C380.41 147.8 380.943 149.567 381.01 151.7V179H390.31V148.4C390.243 144.733 389.01 141.767 386.61 139.5C384.277 137.167 381.077 136 377.01 136C373.877 136 370.877 136.867 368.01 138.6C365.446 140.126 363.385 142.211 361.828 144.855C361.857 145.002 361.885 145.15 361.91 145.3L361.41 145.6C361.545 145.347 361.684 145.099 361.828 144.855C361.459 143.052 360.72 141.533 359.61 140.3C358.477 138.9 357.01 137.833 355.21 137.1C353.41 136.367 351.343 136 349.01 136C345.343 136 342.077 136.9 339.21 138.7C336.578 140.392 334.506 142.673 332.993 145.542L333.11 146.9L332.71 146.1C332.802 145.912 332.897 145.726 332.993 145.542Z" fill="#EEF5DB"/>
<path fill-rule="evenodd" clip-rule="evenodd" d="M369.515 42.8999C369.515 37.8999 370.448 33.1999 372.315 28.7999C374.248 24.3332 376.915 20.3999 380.315 16.9999C383.715 13.5332 387.615 10.8332 392.015 8.89991C396.482 6.89992 401.282 5.89992 406.415 5.89992C411.482 5.89992 416.215 6.89992 420.615 8.89991C425.082 10.8332 429.015 13.5332 432.415 16.9999C435.882 20.3999 438.582 24.3332 440.515 28.7999C442.448 33.1999 443.415 37.8999 443.415 42.8999C443.415 48.0332 442.448 52.8332 440.515 57.2999C438.582 61.7666 435.882 65.6999 432.415 69.0999C429.015 72.4333 425.082 75.0666 420.615 76.9999C416.215 78.8666 411.482 79.7999 406.415 79.7999C401.282 79.7999 396.482 78.8666 392.015 76.9999C387.615 75.1332 383.715 72.5332 380.315 69.1999C376.915 65.8666 374.248 61.9666 372.315 57.4999C370.448 53.0332 369.515 48.1666 369.515 42.8999ZM381.615 53.6999C380.215 50.3666 379.515 46.7999 379.515 42.9999C379.515 39.1999 380.182 35.6332 381.515 32.2999C382.848 28.8999 384.748 25.9332 387.215 23.3999C389.682 20.8666 392.548 18.8666 395.815 17.3999C399.082 15.9332 402.615 15.1999 406.415 15.1999C410.148 15.1999 413.648 15.9332 416.915 17.3999C420.182 18.7999 423.048 20.7666 425.515 23.2999C427.982 25.8332 429.915 28.7999 431.315 32.1999C432.715 35.5332 433.415 39.0999 433.415 42.8999C433.415 46.7666 432.715 50.3666 431.315 53.6999C429.915 56.9666 428.015 59.8666 425.615 62.3999C423.215 64.9332 420.382 66.9332 417.115 68.3999C413.848 69.7999 410.348 70.4999 406.615 70.4999C402.815 70.4999 399.282 69.7999 396.015 68.3999C392.748 66.9332 389.882 64.9332 387.415 62.3999C384.948 59.8666 383.015 56.9666 381.615 53.6999Z" fill="#EEF5DB"/>
<path d="M419.389 50.3281C419.631 52.6416 419.5 55.0368 419.11 57.3296C418.915 58.4819 418.575 59.8048 417.878 60.8212L418.014 60.6805C418.818 59.8451 419.78 58.8456 420.153 58.4351C421.85 56.5679 422.976 54.1343 423.901 51.82C425.241 48.4643 425.373 45.7817 424.62 42.3738C424.268 40.7826 423.428 40.0771 421.708 40.6212C420.989 40.8484 420.515 41.6198 420.171 42.239C418.824 44.6636 419.105 47.6133 419.389 50.3281Z" fill="#EEF5DB"/>
<path d="M413.53 177.2C416.93 179.067 420.996 180 425.73 180C428.196 180 430.696 179.567 433.23 178.7C435.83 177.833 438.163 176.7 440.23 175.3L435.93 168.4C434.463 169.467 432.863 170.333 431.13 171C429.463 171.667 427.729 172 425.93 172C423.263 172 420.863 171.4 418.73 170.2C416.775 169.002 415.208 167.416 414.028 165.443L412.73 165.9L410.53 160.4L412.167 159.803C412.075 159.061 412.03 158.293 412.03 157.5C412.03 154.767 412.596 152.333 413.73 150.2C414.863 148.067 416.43 146.4 418.43 145.2C420.43 143.933 422.696 143.3 425.23 143.3C428.23 143.3 430.663 144.133 432.53 145.8C434.253 147.277 435.522 149.01 436.336 150.999L438.53 150.2L436.53 151.5C436.468 151.331 436.404 151.164 436.336 150.999L412.167 159.803C412.408 161.743 412.962 163.509 413.829 165.1C413.895 165.215 413.961 165.33 414.028 165.443L446.829 153.9C445.563 148.3 443.13 143.9 439.53 140.7C435.93 137.5 431.396 135.9 425.93 135.9C421.663 135.9 417.796 136.9 414.329 138.9C410.863 140.9 408.096 143.567 406.03 146.9C403.963 150.233 402.93 153.933 402.93 158C402.93 162.267 403.83 166.067 405.63 169.4C407.496 172.667 410.13 175.267 413.53 177.2Z" fill="#EEF5DB"/>
<path d="M491.057 75.1999C489.191 76.6666 486.957 77.8332 484.357 78.6999C481.757 79.5666 479.157 79.9999 476.557 79.9999C472.024 79.9999 468.057 79.0999 464.657 77.2999C461.257 75.4999 458.591 72.9999 456.657 69.7999C454.791 66.5332 453.857 62.6999 453.857 58.2999C453.857 53.8999 454.857 50.0666 456.857 46.7999C458.924 43.5332 461.591 41.0332 464.857 39.2999C468.191 37.4999 471.757 36.5999 475.557 36.5999C478.891 36.5999 481.857 37.0666 484.457 37.9999C487.124 38.9332 489.391 40.1999 491.257 41.7999L486.657 47.7999C485.457 46.8666 483.991 46.0332 482.257 45.2999C480.524 44.5666 478.557 44.1999 476.357 44.1999C473.957 44.1999 471.724 44.8332 469.657 46.0999C467.657 47.2999 466.057 48.9666 464.857 51.0999C463.724 53.2332 463.157 55.6332 463.157 58.2999C463.157 60.8332 463.757 63.1999 464.957 65.3999C466.157 67.5332 467.824 69.2332 469.957 70.4999C472.091 71.6999 474.524 72.2999 477.257 72.2999C479.057 72.2999 480.691 72.0332 482.157 71.4999C483.691 70.9666 485.057 70.2332 486.257 69.2999L491.057 75.1999Z" fill="#EEF5DB"/>
<path d="M510.063 77.1999C513.463 79.0666 517.53 79.9999 522.263 79.9999C524.73 79.9999 527.23 79.5666 529.763 78.6999C532.363 77.8332 534.697 76.6999 536.764 75.2999L532.464 68.3999C530.997 69.4666 529.397 70.3332 527.663 70.9999C525.997 71.6666 524.263 71.9999 522.463 71.9999C519.797 71.9999 517.396 71.3999 515.263 70.1999C513.308 69.0019 511.741 67.4162 510.562 65.4428L509.263 65.8999L507.063 60.3999L508.701 59.8033C508.609 59.061 508.563 58.2932 508.563 57.4999C508.563 54.7666 509.129 52.3332 510.263 50.1999C511.396 48.0666 512.963 46.3999 514.963 45.1999C516.963 43.9332 519.23 43.2999 521.763 43.2999C524.763 43.2999 527.197 44.1332 529.063 45.7999C530.787 47.2772 532.056 49.0102 532.87 50.999L535.064 50.1999L533.064 51.4999C533.002 51.3312 532.938 51.1642 532.87 50.999L508.701 59.8033C508.941 61.7432 509.495 63.5087 510.363 65.0999C510.428 65.2155 510.494 65.3298 510.562 65.4428L543.364 53.8999C542.097 48.2999 539.664 43.8999 536.064 40.6999C532.464 37.4999 527.93 35.8999 522.463 35.8999C518.197 35.8999 514.329 36.8999 510.863 38.8999C507.396 40.8999 504.629 43.5666 502.563 46.8999C500.496 50.2332 499.463 53.9332 499.463 57.9999C499.463 62.2666 500.363 66.0666 502.163 69.3999C504.029 72.6666 506.663 75.2666 510.063 77.1999Z" fill="#EEF5DB"/>
<path d="M514.846 119.4H524.147V137.8H535.547V145.1H524.147V179H514.846V145.1H507.246V137.8H514.846V119.4Z" fill="#EEF5DB"/>
<path fill-rule="evenodd" clip-rule="evenodd" d="M561.617 77.4999C564.817 79.1666 568.35 79.9999 572.217 79.9999C574.617 79.9999 576.784 79.6666 578.717 78.9999C580.65 78.2666 582.35 77.3666 583.817 76.2999C585.35 75.2332 586.55 74.1999 587.417 73.1999C587.718 72.8554 587.985 72.5318 588.217 72.229V68.1999L589.217 70.5999C589.036 71.0513 588.703 71.5943 588.217 72.229V78.9999H597.517V37.5999H588.917L588.243 44.1901C588.372 44.3909 588.497 44.5942 588.617 44.7999L588.017 46.3999L588.243 44.1901C586.864 42.0481 584.955 40.1847 582.517 38.5999C579.85 36.7999 576.584 35.8999 572.717 35.8999C568.85 35.8999 565.284 36.7999 562.017 38.5999C558.817 40.3999 556.25 42.9999 554.317 46.3999C552.384 49.7332 551.417 53.6999 551.417 58.2999C551.417 62.9666 552.317 66.9332 554.117 70.1999C555.984 73.3999 558.484 75.8332 561.617 77.4999ZM581.017 70.9999C579.15 71.8666 577.05 72.2999 574.717 72.2999C572.25 72.2999 569.95 71.6666 567.817 70.3999C565.684 69.1332 563.984 67.3999 562.717 65.1999C561.45 62.9999 560.817 60.5666 560.817 57.8999C560.817 55.0332 561.417 52.5332 562.617 50.3999C563.884 48.2666 565.55 46.5999 567.617 45.3999C569.684 44.1999 571.95 43.5999 574.417 43.5999C576.684 43.5999 578.75 44.0332 580.617 44.8999C582.484 45.6999 584.084 46.8666 585.417 48.3999C586.75 49.8666 587.684 51.5999 588.217 53.5999V61.6999C587.75 63.8999 586.884 65.7999 585.617 67.3999C584.417 68.9332 582.884 70.1332 581.017 70.9999Z" fill="#EEF5DB"/>
<path d="M622.543 45.5887L621.911 37.5999H613.611V78.9999H622.911V59.5999C622.911 56.5332 623.444 53.8332 624.511 51.4999C625.644 49.1666 627.177 47.3332 629.111 45.9999C631.044 44.6666 633.211 43.9999 635.611 43.9999C638.211 43.9999 640.111 44.7332 641.311 46.1999C642.577 47.5999 643.244 49.4332 643.311 51.6999V78.9999H652.711V48.3999C652.644 44.7332 651.344 41.7666 648.811 39.4999C646.344 37.1666 643.144 35.9999 639.211 35.9999C635.277 35.9999 631.811 36.9332 628.811 38.7999C625.979 40.4987 623.89 42.7617 622.543 45.5887L622.711 47.6999L622.311 46.0999C622.386 45.9275 622.463 45.7571 622.543 45.5887Z" fill="#EEF5DB"/>
<path fill-rule="evenodd" clip-rule="evenodd" d="M543.185 157.9C543.185 153.767 544.151 150.033 546.085 146.7C548.085 143.367 550.818 140.733 554.285 138.8C557.751 136.867 561.685 135.9 566.085 135.9C570.618 135.9 574.585 136.867 577.985 138.8C581.385 140.733 584.018 143.367 585.885 146.7C587.751 150.033 588.685 153.767 588.685 157.9C588.685 162.033 587.751 165.8 585.885 169.2C584.018 172.533 581.351 175.167 577.885 177.1C574.484 179.033 570.518 180 565.985 180C561.585 180 557.651 179.1 554.185 177.3C550.785 175.433 548.085 172.867 546.085 169.6C544.151 166.267 543.185 162.367 543.185 157.9ZM554.285 165.3C553.085 163.1 552.485 160.667 552.485 158C552.485 155.4 553.051 153.033 554.185 150.9C555.385 148.7 556.985 146.933 558.985 145.6C561.051 144.267 563.351 143.6 565.885 143.6C568.484 143.6 570.785 144.267 572.785 145.6C574.851 146.867 576.451 148.6 577.585 150.8C578.718 152.933 579.285 155.333 579.285 158C579.285 160.667 578.718 163.1 577.585 165.3C576.451 167.433 574.851 169.133 572.785 170.4C570.785 171.667 568.484 172.3 565.885 172.3C563.418 172.3 561.151 171.667 559.085 170.4C557.085 169.133 555.485 167.433 554.285 165.3Z" fill="#EEF5DB"/>
<path d="M655.217 106.7H664.917V169.7H701.617V179H655.217V106.7Z" fill="#EEF5DB"/>
<path d="M702.825 6.69991H745.725V15.9999H712.525V39.0999H741.625V48.2999H712.525V78.9999H702.825V6.69991Z" fill="#EEF5DB"/>
<path d="M715.124 137.6H724.424V179H715.124V137.6Z" fill="#EEF5DB"/>
<path d="M714.424 122.6C714.424 121.133 714.991 119.9 716.124 118.9C717.324 117.9 718.624 117.4 720.024 117.4C721.424 117.4 722.658 117.9 723.724 118.9C724.858 119.9 725.424 121.133 725.424 122.6C725.424 124.133 724.858 125.4 723.724 126.4C722.658 127.333 721.424 127.8 720.024 127.8C718.624 127.8 717.324 127.3 716.124 126.3C714.991 125.3 714.424 124.067 714.424 122.6Z" fill="#EEF5DB"/>
<path d="M759.411 1.59991H768.711V78.9999H759.411V1.59991Z" fill="#EEF5DB"/>
<path fill-rule="evenodd" clip-rule="evenodd" d="M791.402 77.4999C794.602 79.1666 798.135 79.9999 802.002 79.9999C804.402 79.9999 806.569 79.6666 808.502 78.9999C810.435 78.2666 812.135 77.3666 813.602 76.2999C815.135 75.2332 816.336 74.1999 817.202 73.1999C817.504 72.8554 817.77 72.5318 818.002 72.229V68.1999L819.002 70.5999C818.822 71.0513 818.488 71.5943 818.002 72.229V78.9999H827.302V37.5999H818.702L818.028 44.1901C818.157 44.3909 818.282 44.5942 818.402 44.7999L817.802 46.3999L818.028 44.1901C816.649 42.0481 814.74 40.1847 812.302 38.5999C809.635 36.7999 806.369 35.8999 802.502 35.8999C798.635 35.8999 795.069 36.7999 791.802 38.5999C788.602 40.3999 786.035 42.9999 784.102 46.3999C782.169 49.7332 781.202 53.6999 781.202 58.2999C781.202 62.9666 782.102 66.9332 783.902 70.1999C785.769 73.3999 788.269 75.8332 791.402 77.4999ZM810.802 70.9999C808.935 71.8666 806.835 72.2999 804.502 72.2999C802.035 72.2999 799.735 71.6666 797.602 70.3999C795.469 69.1332 793.769 67.3999 792.502 65.1999C791.235 62.9999 790.602 60.5666 790.602 57.8999C790.602 55.0332 791.202 52.5332 792.402 50.3999C793.669 48.2666 795.335 46.5999 797.402 45.3999C799.469 44.1999 801.735 43.5999 804.202 43.5999C806.469 43.5999 808.535 44.0332 810.402 44.8999C812.269 45.6999 813.869 46.8666 815.202 48.3999C816.535 49.8666 817.469 51.5999 818.002 53.5999V61.6999C817.535 63.8999 816.669 65.7999 815.402 67.3999C814.202 68.9332 812.669 70.1332 810.802 70.9999Z" fill="#EEF5DB"/>
<path d="M743.915 179V145.9H736.815V137.6H743.915V120.1C743.915 114.1 745.248 109.5 747.915 106.3C750.648 103.1 754.648 101.5 759.915 101.5C761.315 101.5 762.848 101.7 764.515 102.1C766.248 102.5 767.748 103.167 769.015 104.1L765.115 110.8C764.515 110.2 763.848 109.8 763.115 109.6C762.382 109.333 761.648 109.2 760.915 109.2C758.448 109.2 756.548 110.033 755.215 111.7C753.882 113.367 753.215 116.2 753.215 120.2V137.6H766.315V145.9H753.215V179H743.915Z" fill="#EEF5DB"/>
<path fill-rule="evenodd" clip-rule="evenodd" d="M888.233 57.8999C888.233 53.7666 889.2 50.0332 891.133 46.6999C893.133 43.3666 895.867 40.7332 899.333 38.7999C902.8 36.8666 906.733 35.8999 911.133 35.8999C915.667 35.8999 919.633 36.8666 923.033 38.7999C926.433 40.7332 929.067 43.3666 930.933 46.6999C932.8 50.0332 933.733 53.7666 933.733 57.8999C933.733 62.0332 932.8 65.7999 930.933 69.1999C929.067 72.5332 926.4 75.1666 922.933 77.0999C919.533 79.0332 915.567 79.9999 911.033 79.9999C906.633 79.9999 902.7 79.0999 899.233 77.2999C895.833 75.4332 893.133 72.8666 891.133 69.5999C889.2 66.2666 888.233 62.3666 888.233 57.8999ZM899.333 65.2999C898.133 63.0999 897.533 60.6666 897.533 57.9999C897.533 55.3999 898.1 53.0332 899.233 50.8999C900.433 48.6999 902.033 46.9332 904.033 45.5999C906.1 44.2666 908.4 43.5999 910.933 43.5999C913.533 43.5999 915.833 44.2666 917.833 45.5999C919.9 46.8666 921.5 48.5999 922.633 50.7999C923.767 52.9332 924.333 55.3332 924.333 57.9999C924.333 60.6666 923.767 63.0999 922.633 65.2999C921.5 67.4332 919.9 69.1332 917.833 70.3999C915.833 71.6666 913.533 72.2999 910.933 72.2999C908.467 72.2999 906.2 71.6666 904.133 70.3999C902.133 69.1332 900.533 67.4332 899.333 65.2999Z" fill="#EEF5DB"/>
<path d="M837.196 37.5999L860.196 80.1999H860.696L882.796 37.5999H872.396L860.785 64.1503L863.796 70.4999L858.096 70.2999L860.785 64.1503L848.196 37.5999H837.196Z" fill="#EEF5DB"/>
<path d="M955.351 47.2704L954.626 37.5999H946.326V78.9999H955.526V60.0999C955.526 57.4332 956.192 54.9332 957.526 52.5999C958.926 50.2666 960.792 48.3999 963.126 46.9999C965.526 45.5999 968.292 44.9999 971.426 45.1999L971.926 35.9999C970.259 35.9999 968.292 36.4999 966.026 37.4999C963.826 38.4332 961.692 39.7999 959.626 41.5999C957.821 43.1642 956.396 45.0544 955.351 47.2704L955.526 49.5999L955.026 47.9999C955.13 47.7529 955.238 47.5097 955.351 47.2704Z" fill="#EEF5DB"/>
<path d="M993.398 81.6C990.465 81.6 987.599 81.1 984.799 80.1C982.065 79.0334 979.799 77.4667 977.999 75.4L981.898 70C983.632 71.6667 985.398 72.9333 987.198 73.8C989.065 74.6 990.898 75 992.698 75C994.032 75 995.265 74.8333 996.398 74.5C997.532 74.1667 998.432 73.6333 999.099 72.9C999.832 72.1 1000.2 71.0333 1000.2 69.7C1000.2 68.2334 999.698 67.0667 998.698 66.2C997.765 65.3333 996.532 64.6334 994.999 64.1C993.532 63.5667 991.965 63.0667 990.299 62.6C986.899 61.4667 984.299 59.9 982.499 57.9C980.699 55.9 979.799 53.4667 979.799 50.6C979.799 48.4 980.332 46.3667 981.398 44.5C982.532 42.5667 984.165 41 986.299 39.8C988.499 38.6 991.198 38 994.398 38C997.265 38 999.832 38.3667 1002.1 39.1C1004.37 39.7667 1006.5 40.9 1008.5 42.5L1004.8 48.3C1003.6 47.0334 1002.17 46.1 1000.5 45.5C998.832 44.9 997.332 44.5667 995.999 44.5C994.865 44.4334 993.765 44.6 992.698 45C991.698 45.4 990.865 45.9667 990.198 46.7C989.532 47.4334 989.198 48.3 989.198 49.3C989.198 50.7 989.665 51.8334 990.599 52.7C991.532 53.5667 992.732 54.2667 994.198 54.8C995.732 55.2667 997.232 55.7667 998.698 56.3C1000.77 56.9 1002.6 57.7 1004.2 58.7C1005.8 59.7 1007.07 60.9334 1008 62.4C1009 63.8667 1009.5 65.7 1009.5 67.9C1009.5 70.3667 1008.9 72.6667 1007.7 74.8C1006.57 76.8667 1004.8 78.5334 1002.4 79.8C1000.07 81 997.065 81.6 993.398 81.6Z" fill="#EEF5DB"/>
<path d="M40.5 11L68.1918 79.9966C68.513 80.8353 69.6913 80.8582 70.0449 80.0326L87.5583 39.1371M40.5 11L51.4739 7.09991M40.5 11C41.1189 12.7 29.4622 30.5612 18.1756 34.7566C13.7831 36.3893 8.54165 35.8716 4.49992 33.5V33.5C0.50492 31.1559 0.940911 25.545 4.1836 22.2374C6.23084 20.1492 14.0665 21.4655 16.5433 19.9109C19.659 17.9552 36.8192 3.21737 39.3677 2.46294V2.46294C42.542 1.52328 46.2623 3.17957 49.066 4.93973C49.8526 5.43356 50.6178 6.06823 51.4739 7.09991M51.4739 7.09991L70.1304 59.6426L82.7683 26.9428M87.5583 39.1371L82.7683 26.9428M87.5583 39.1371L88.1738 37.6999L83.6738 24.5999L82.7683 26.9428M87.5583 39.1371L103.525 79.7853C103.86 80.6369 105.068 80.6292 105.391 79.7734L132.362 8.45363C132.609 7.79946 132.126 7.09991 131.427 7.09991H123.286C122.86 7.09991 122.48 7.36999 122.341 7.77268L104.741 58.5943M82.7683 26.9428L75.5103 8.46553C75.2526 7.80951 75.7362 7.09991 76.441 7.09991H83.9902C84.4024 7.09991 84.7723 7.35278 84.922 7.7368L104.741 58.5943M416.926 61.8145C416.278 62.5012 417.847 61.2547 418.544 60.3585M416.926 61.8145C417.121 61.6082 417.473 61.2424 417.878 60.8212M416.926 61.8145C417.302 61.544 417.615 61.2044 417.878 60.8212M417.878 60.8212C418.575 59.8048 418.915 58.4819 419.11 57.3296C419.5 55.0368 419.631 52.6416 419.389 50.3281C419.105 47.6133 418.824 44.6636 420.171 42.239C420.515 41.6198 420.989 40.8484 421.708 40.6212C423.428 40.0771 424.268 40.7826 424.62 42.3738C425.373 45.7817 425.241 48.4643 423.901 51.82C422.976 54.1343 421.85 56.5679 420.153 58.4351C419.78 58.8456 418.818 59.8451 418.014 60.6805M417.878 60.8212L418.014 60.6805M417.878 60.8212C417.923 60.7749 417.968 60.728 418.014 60.6805M783.658 165.443C784.838 167.416 786.405 169.002 788.36 170.2C789.827 171.025 791.421 171.567 793.14 171.825C794.735 172.063 796.509 172.314 798.1 172.574V172.574C800.13 172.905 802.093 172.79 804.088 172.29C804.662 172.146 805.215 171.905 805.772 171.5C809.265 169.653 811.713 169.201 814.999 167C817.471 165.344 820.523 164.221 822.56 162.022C827.077 157.147 831.549 152.163 835.539 146.843C841.383 139.051 851.073 136.198 860.443 135.3C864.08 134.951 867.001 135.47 870.503 136.448C873.266 137.219 877.56 137.691 879.527 140.083C881.202 142.119 882.115 145.202 881.186 147.768C879.808 151.571 874.247 153.596 870.567 154.066C867.652 154.438 864.7 154.45 861.766 154.305C854.295 153.936 846.922 155.431 840.178 158.769C836.339 160.669 832.404 162.465 828.747 164.7C825.47 166.703 821.911 168.346 818.782 170.568C816.343 172.299 813.999 173.5 811.499 174.5C811.339 174.564 810.025 175.236 809.86 175.3C807.793 176.7 805.46 177.833 802.86 178.7C800.326 179.567 797.826 180 795.36 180C790.626 180 786.56 179.067 783.16 177.2C779.76 175.267 777.126 172.667 775.26 169.4C773.46 166.067 772.56 162.267 772.56 158C772.56 153.933 773.593 150.233 775.66 146.9C777.726 143.567 780.493 140.9 783.96 138.9C787.426 136.9 791.293 135.9 795.56 135.9C801.026 135.9 805.56 137.5 809.16 140.7C812.76 143.9 815.193 148.3 816.46 153.9L783.658 165.443ZM783.658 165.443L782.36 165.9L780.16 160.4L781.797 159.803M783.658 165.443C783.591 165.33 783.525 165.215 783.46 165.1C782.592 163.509 782.038 161.743 781.797 159.803M781.797 159.803C781.705 159.061 781.66 158.293 781.66 157.5C781.66 154.767 782.226 152.333 783.36 150.2C784.493 148.067 786.06 146.4 788.06 145.2C790.06 143.933 792.326 143.3 794.86 143.3C797.86 143.3 800.293 144.133 802.16 145.8C803.883 147.277 805.152 149.01 805.966 150.999M781.797 159.803L805.966 150.999M805.966 150.999L808.16 150.2L806.16 151.5C806.098 151.331 806.034 151.164 805.966 150.999ZM104.741 58.5943L105.874 61.4999L103.874 61.0999L104.741 58.5943ZM154.155 45.1217C155.555 42.5568 157.622 40.4162 160.355 38.6999C163.289 36.8999 166.722 35.9999 170.655 35.9999C174.589 35.9999 177.789 37.1666 180.255 39.4999C182.789 41.7666 184.089 44.7332 184.155 48.3999V78.9999H174.755V51.6999C174.689 49.4332 174.022 47.5999 172.755 46.1999C171.555 44.7332 169.655 43.9999 167.055 43.9999C164.655 43.9999 162.489 44.6999 160.555 46.0999C158.622 47.4332 157.089 49.2666 155.955 51.5999C154.889 53.9332 154.355 56.5999 154.355 59.5999V78.9999H145.055V1.59991H154.155V45.1217ZM154.155 45.1217V47.1999L153.955 45.4999C154.02 45.3728 154.087 45.2468 154.155 45.1217ZM207.828 65.4428C209.007 67.4162 210.574 69.0019 212.529 70.1999C214.662 71.3999 217.062 71.9999 219.729 71.9999C221.529 71.9999 223.262 71.6666 224.929 70.9999C226.662 70.3332 228.262 69.4666 229.729 68.3999L234.029 75.2999C231.962 76.6999 229.629 77.8332 227.029 78.6999C224.495 79.5666 221.995 79.9999 219.529 79.9999C214.795 79.9999 210.729 79.0666 207.329 77.1999C203.929 75.2666 201.295 72.6666 199.429 69.3999C197.629 66.0666 196.729 62.2666 196.729 57.9999C196.729 53.9332 197.762 50.2332 199.829 46.8999C201.895 43.5666 204.662 40.8999 208.129 38.8999C211.595 36.8999 215.462 35.8999 219.729 35.8999C225.195 35.8999 229.729 37.4999 233.329 40.6999C236.929 43.8999 239.362 48.2999 240.629 53.8999L207.828 65.4428ZM207.828 65.4428L206.529 65.8999L204.329 60.3999L205.967 59.8032M207.828 65.4428C207.76 65.3298 207.694 65.2155 207.629 65.0999C206.761 63.5087 206.207 61.7432 205.967 59.8032M205.967 59.8032C205.875 59.061 205.829 58.2932 205.829 57.4999C205.829 54.7666 206.395 52.3332 207.529 50.1999C208.662 48.0666 210.229 46.3999 212.229 45.1999C214.229 43.9332 216.495 43.2999 219.029 43.2999C222.029 43.2999 224.462 44.1332 226.329 45.7999C228.052 47.2772 229.321 49.0102 230.135 50.999M205.967 59.8032L230.135 50.999M230.135 50.999L232.329 50.1999L230.329 51.4999C230.267 51.3312 230.203 51.1642 230.135 50.999ZM261.307 47.2704L260.582 37.5999H252.282V78.9999H261.482V60.0999C261.482 57.4332 262.148 54.9332 263.482 52.5999C264.882 50.2666 266.748 48.3999 269.082 46.9999C271.482 45.5999 274.248 44.9999 277.382 45.1999L277.882 35.9999C276.215 35.9999 274.248 36.4999 271.982 37.4999C269.782 38.4332 267.648 39.7999 265.582 41.5999C263.777 43.1642 262.352 45.0544 261.307 47.2704ZM261.307 47.2704L261.482 49.5999L260.982 47.9999C261.086 47.7529 261.194 47.5097 261.307 47.2704ZM295.62 65.4428C296.8 67.4162 298.367 69.0019 300.321 70.1999C302.455 71.3999 304.855 71.9999 307.521 71.9999C309.321 71.9999 311.055 71.6666 312.721 70.9999C314.455 70.3332 316.055 69.4666 317.521 68.3999L321.821 75.2999C319.755 76.6999 317.421 77.8332 314.821 78.6999C312.288 79.5666 309.788 79.9999 307.321 79.9999C302.588 79.9999 298.521 79.0666 295.121 77.1999C291.721 75.2666 289.088 72.6666 287.221 69.3999C285.421 66.0666 284.521 62.2666 284.521 57.9999C284.521 53.9332 285.555 50.2332 287.621 46.8999C289.688 43.5666 292.455 40.8999 295.921 38.8999C299.388 36.8999 303.255 35.8999 307.521 35.8999C312.988 35.8999 317.521 37.4999 321.121 40.6999C324.721 43.8999 327.155 48.2999 328.421 53.8999L295.62 65.4428ZM295.62 65.4428L294.321 65.8999L292.121 60.3999L293.759 59.8032M295.62 65.4428C295.553 65.3298 295.486 65.2155 295.421 65.0999C294.553 63.5087 293.999 61.7432 293.759 59.8032M293.759 59.8032C293.667 59.061 293.621 58.2932 293.621 57.4999C293.621 54.7666 294.188 52.3332 295.321 50.1999C296.455 48.0666 298.021 46.3999 300.021 45.1999C302.021 43.9332 304.288 43.2999 306.821 43.2999C309.821 43.2999 312.255 44.1332 314.121 45.7999C315.845 47.2772 317.114 49.0102 317.928 50.999M293.759 59.8032L317.928 50.999M317.928 50.999L320.121 50.1999L318.121 51.4999C318.06 51.3312 317.995 51.1642 317.928 50.999ZM332.993 145.542L332.31 137.6H324.01V179H333.31V159.4C333.31 156.733 333.81 154.233 334.81 151.9C335.877 149.567 337.343 147.667 339.21 146.2C341.077 144.733 343.243 144 345.71 144C348.11 144.133 349.81 144.933 350.81 146.4C351.877 147.8 352.443 149.567 352.51 151.7V179H361.81V159.3C361.877 156.633 362.443 154.167 363.51 151.9C364.577 149.567 366.043 147.667 367.91 146.2C369.843 144.733 372.01 144 374.41 144C376.81 144.133 378.477 144.933 379.41 146.4C380.41 147.8 380.943 149.567 381.01 151.7V179H390.31V148.4C390.243 144.733 389.01 141.767 386.61 139.5C384.277 137.167 381.077 136 377.01 136C373.877 136 370.877 136.867 368.01 138.6C365.446 140.126 363.385 142.211 361.828 144.855M332.993 145.542C334.506 142.673 336.578 140.392 339.21 138.7C342.077 136.9 345.343 136 349.01 136C351.343 136 353.41 136.367 355.21 137.1C357.01 137.833 358.477 138.9 359.61 140.3C360.72 141.533 361.459 143.052 361.828 144.855M332.993 145.542L333.11 146.9L332.71 146.1C332.802 145.912 332.897 145.726 332.993 145.542ZM361.828 144.855C361.857 145.002 361.885 145.15 361.91 145.3L361.41 145.6C361.545 145.347 361.684 145.099 361.828 144.855ZM414.028 165.443C415.208 167.416 416.775 169.002 418.73 170.2C420.863 171.4 423.263 172 425.93 172C427.729 172 429.463 171.667 431.13 171C432.863 170.333 434.463 169.467 435.93 168.4L440.23 175.3C438.163 176.7 435.83 177.833 433.23 178.7C430.696 179.567 428.196 180 425.73 180C420.996 180 416.93 179.067 413.53 177.2C410.13 175.267 407.496 172.667 405.63 169.4C403.83 166.067 402.93 162.267 402.93 158C402.93 153.933 403.963 150.233 406.03 146.9C408.096 143.567 410.863 140.9 414.329 138.9C417.796 136.9 421.663 135.9 425.93 135.9C431.396 135.9 435.93 137.5 439.53 140.7C443.13 143.9 445.563 148.3 446.829 153.9L414.028 165.443ZM414.028 165.443L412.73 165.9L410.53 160.4L412.167 159.803M414.028 165.443C413.961 165.33 413.895 165.215 413.829 165.1C412.962 163.509 412.408 161.743 412.167 159.803M412.167 159.803C412.075 159.061 412.03 158.293 412.03 157.5C412.03 154.767 412.596 152.333 413.73 150.2C414.863 148.067 416.43 146.4 418.43 145.2C420.43 143.933 422.696 143.3 425.23 143.3C428.23 143.3 430.663 144.133 432.53 145.8C434.253 147.277 435.522 149.01 436.336 150.999M412.167 159.803L436.336 150.999M436.336 150.999L438.53 150.2L436.53 151.5C436.468 151.331 436.404 151.164 436.336 150.999ZM510.562 65.4428C511.741 67.4162 513.308 69.0019 515.263 70.1999C517.396 71.3999 519.797 71.9999 522.463 71.9999C524.263 71.9999 525.997 71.6666 527.663 70.9999C529.397 70.3332 530.997 69.4666 532.464 68.3999L536.764 75.2999C534.697 76.6999 532.363 77.8332 529.763 78.6999C527.23 79.5666 524.73 79.9999 522.263 79.9999C517.53 79.9999 513.463 79.0666 510.063 77.1999C506.663 75.2666 504.029 72.6666 502.163 69.3999C500.363 66.0666 499.463 62.2666 499.463 57.9999C499.463 53.9332 500.496 50.2332 502.563 46.8999C504.629 43.5666 507.396 40.8999 510.863 38.8999C514.329 36.8999 518.197 35.8999 522.463 35.8999C527.93 35.8999 532.464 37.4999 536.064 40.6999C539.664 43.8999 542.097 48.2999 543.364 53.8999L510.562 65.4428ZM510.562 65.4428L509.263 65.8999L507.063 60.3999L508.701 59.8033M510.562 65.4428C510.494 65.3298 510.428 65.2155 510.363 65.0999C509.495 63.5087 508.941 61.7432 508.701 59.8033M508.701 59.8033C508.609 59.061 508.563 58.2932 508.563 57.4999C508.563 54.7666 509.129 52.3332 510.263 50.1999C511.396 48.0666 512.963 46.3999 514.963 45.1999C516.963 43.9332 519.23 43.2999 521.763 43.2999C524.763 43.2999 527.197 44.1332 529.063 45.7999C530.787 47.2772 532.056 49.0102 532.87 50.999M508.701 59.8033L532.87 50.999M532.87 50.999L535.064 50.1999L533.064 51.4999C533.002 51.3312 532.938 51.1642 532.87 50.999ZM588.217 72.229C587.985 72.5318 587.718 72.8554 587.417 73.1999C586.55 74.1999 585.35 75.2332 583.817 76.2999C582.35 77.3666 580.65 78.2666 578.717 78.9999C576.784 79.6666 574.617 79.9999 572.217 79.9999C568.35 79.9999 564.817 79.1666 561.617 77.4999C558.484 75.8332 555.984 73.3999 554.117 70.1999C552.317 66.9332 551.417 62.9666 551.417 58.2999C551.417 53.6999 552.384 49.7332 554.317 46.3999C556.25 42.9999 558.817 40.3999 562.017 38.5999C565.284 36.7999 568.85 35.8999 572.717 35.8999C576.584 35.8999 579.85 36.7999 582.517 38.5999C584.955 40.1847 586.864 42.0481 588.243 44.1901M588.217 72.229V68.1999L589.217 70.5999C589.036 71.0513 588.703 71.5943 588.217 72.229ZM588.217 72.229V78.9999H597.517V37.5999H588.917L588.243 44.1901M588.243 44.1901C588.372 44.3909 588.497 44.5942 588.617 44.7999L588.017 46.3999L588.243 44.1901ZM622.543 45.5887L621.911 37.5999H613.611V78.9999H622.911V59.5999C622.911 56.5332 623.444 53.8332 624.511 51.4999C625.644 49.1666 627.177 47.3332 629.111 45.9999C631.044 44.6666 633.211 43.9999 635.611 43.9999C638.211 43.9999 640.111 44.7332 641.311 46.1999C642.577 47.5999 643.244 49.4332 643.311 51.6999V78.9999H652.711V48.3999C652.644 44.7332 651.344 41.7666 648.811 39.4999C646.344 37.1666 643.144 35.9999 639.211 35.9999C635.277 35.9999 631.811 36.9332 628.811 38.7999C625.979 40.4987 623.89 42.7617 622.543 45.5887ZM622.543 45.5887L622.711 47.6999L622.311 46.0999C622.386 45.9275 622.463 45.7571 622.543 45.5887ZM818.002 72.229C817.77 72.5318 817.504 72.8554 817.202 73.1999C816.336 74.1999 815.135 75.2332 813.602 76.2999C812.135 77.3666 810.435 78.2666 808.502 78.9999C806.569 79.6666 804.402 79.9999 802.002 79.9999C798.135 79.9999 794.602 79.1666 791.402 77.4999C788.269 75.8332 785.769 73.3999 783.902 70.1999C782.102 66.9332 781.202 62.9666 781.202 58.2999C781.202 53.6999 782.169 49.7332 784.102 46.3999C786.035 42.9999 788.602 40.3999 791.802 38.5999C795.069 36.7999 798.635 35.8999 802.502 35.8999C806.369 35.8999 809.635 36.7999 812.302 38.5999C814.74 40.1847 816.649 42.0481 818.028 44.1901M818.002 72.229V68.1999L819.002 70.5999C818.822 71.0513 818.488 71.5943 818.002 72.229ZM818.002 72.229V78.9999H827.302V37.5999H818.702L818.028 44.1901M818.028 44.1901C818.157 44.3909 818.282 44.5942 818.402 44.7999L817.802 46.3999L818.028 44.1901ZM860.785 64.1503L872.396 37.5999H882.796L860.696 80.1999H860.196L837.196 37.5999H848.196L860.785 64.1503ZM860.785 64.1503L863.796 70.4999L858.096 70.2999L860.785 64.1503ZM955.351 47.2704L954.626 37.5999H946.326V78.9999H955.526V60.0999C955.526 57.4332 956.192 54.9332 957.526 52.5999C958.926 50.2666 960.792 48.3999 963.126 46.9999C965.526 45.5999 968.292 44.9999 971.426 45.1999L971.926 35.9999C970.259 35.9999 968.292 36.4999 966.026 37.4999C963.826 38.4332 961.692 39.7999 959.626 41.5999C957.821 43.1642 956.396 45.0544 955.351 47.2704ZM955.351 47.2704L955.526 49.5999L955.026 47.9999C955.13 47.7529 955.238 47.5097 955.351 47.2704ZM369.515 42.8999C369.515 37.8999 370.448 33.1999 372.315 28.7999C374.248 24.3332 376.915 20.3999 380.315 16.9999C383.715 13.5332 387.615 10.8332 392.015 8.89991C396.482 6.89992 401.282 5.89992 406.415 5.89992C411.482 5.89992 416.215 6.89992 420.615 8.89991C425.082 10.8332 429.015 13.5332 432.415 16.9999C435.882 20.3999 438.582 24.3332 440.515 28.7999C442.448 33.1999 443.415 37.8999 443.415 42.8999C443.415 48.0332 442.448 52.8332 440.515 57.2999C438.582 61.7666 435.882 65.6999 432.415 69.0999C429.015 72.4333 425.082 75.0666 420.615 76.9999C416.215 78.8666 411.482 79.7999 406.415 79.7999C401.282 79.7999 396.482 78.8666 392.015 76.9999C387.615 75.1332 383.715 72.5332 380.315 69.1999C376.915 65.8666 374.248 61.9666 372.315 57.4999C370.448 53.0332 369.515 48.1666 369.515 42.8999ZM379.515 42.9999C379.515 46.7999 380.215 50.3666 381.615 53.6999C383.015 56.9666 384.948 59.8666 387.415 62.3999C389.882 64.9332 392.748 66.9332 396.015 68.3999C399.282 69.7999 402.815 70.4999 406.615 70.4999C410.348 70.4999 413.848 69.7999 417.115 68.3999C420.382 66.9332 423.215 64.9332 425.615 62.3999C428.015 59.8666 429.915 56.9666 431.315 53.6999C432.715 50.3666 433.415 46.7666 433.415 42.8999C433.415 39.0999 432.715 35.5332 431.315 32.1999C429.915 28.7999 427.982 25.8332 425.515 23.2999C423.048 20.7666 420.182 18.7999 416.915 17.3999C413.648 15.9332 410.148 15.1999 406.415 15.1999C402.615 15.1999 399.082 15.9332 395.815 17.3999C392.548 18.8666 389.682 20.8666 387.215 23.3999C384.748 25.9332 382.848 28.8999 381.515 32.2999C380.182 35.6332 379.515 39.1999 379.515 42.9999ZM491.057 75.1999C489.191 76.6666 486.957 77.8332 484.357 78.6999C481.757 79.5666 479.157 79.9999 476.557 79.9999C472.024 79.9999 468.057 79.0999 464.657 77.2999C461.257 75.4999 458.591 72.9999 456.657 69.7999C454.791 66.5332 453.857 62.6999 453.857 58.2999C453.857 53.8999 454.857 50.0666 456.857 46.7999C458.924 43.5332 461.591 41.0332 464.857 39.2999C468.191 37.4999 471.757 36.5999 475.557 36.5999C478.891 36.5999 481.857 37.0666 484.457 37.9999C487.124 38.9332 489.391 40.1999 491.257 41.7999L486.657 47.7999C485.457 46.8666 483.991 46.0332 482.257 45.2999C480.524 44.5666 478.557 44.1999 476.357 44.1999C473.957 44.1999 471.724 44.8332 469.657 46.0999C467.657 47.2999 466.057 48.9666 464.857 51.0999C463.724 53.2332 463.157 55.6332 463.157 58.2999C463.157 60.8332 463.757 63.1999 464.957 65.3999C466.157 67.5332 467.824 69.2332 469.957 70.4999C472.091 71.6999 474.524 72.2999 477.257 72.2999C479.057 72.2999 480.691 72.0332 482.157 71.4999C483.691 70.9666 485.057 70.2332 486.257 69.2999L491.057 75.1999ZM574.717 72.2999C577.05 72.2999 579.15 71.8666 581.017 70.9999C582.884 70.1332 584.417 68.9332 585.617 67.3999C586.884 65.7999 587.75 63.8999 588.217 61.6999V53.5999C587.684 51.5999 586.75 49.8666 585.417 48.3999C584.084 46.8666 582.484 45.6999 580.617 44.8999C578.75 44.0332 576.684 43.5999 574.417 43.5999C571.95 43.5999 569.684 44.1999 567.617 45.3999C565.55 46.5999 563.884 48.2666 562.617 50.3999C561.417 52.5332 560.817 55.0332 560.817 57.8999C560.817 60.5666 561.45 62.9999 562.717 65.1999C563.984 67.3999 565.684 69.1332 567.817 70.3999C569.95 71.6666 572.25 72.2999 574.717 72.2999ZM702.825 6.69991H745.725V15.9999H712.525V39.0999H741.625V48.2999H712.525V78.9999H702.825V6.69991ZM759.411 1.59991H768.711V78.9999H759.411V1.59991ZM804.502 72.2999C806.835 72.2999 808.935 71.8666 810.802 70.9999C812.669 70.1332 814.202 68.9332 815.402 67.3999C816.669 65.7999 817.535 63.8999 818.002 61.6999V53.5999C817.469 51.5999 816.535 49.8666 815.202 48.3999C813.869 46.8666 812.269 45.6999 810.402 44.8999C808.535 44.0332 806.469 43.5999 804.202 43.5999C801.735 43.5999 799.469 44.1999 797.402 45.3999C795.335 46.5999 793.669 48.2666 792.402 50.3999C791.202 52.5332 790.602 55.0332 790.602 57.8999C790.602 60.5666 791.235 62.9999 792.502 65.1999C793.769 67.3999 795.469 69.1332 797.602 70.3999C799.735 71.6666 802.035 72.2999 804.502 72.2999ZM888.233 57.8999C888.233 53.7666 889.2 50.0332 891.133 46.6999C893.133 43.3666 895.867 40.7332 899.333 38.7999C902.8 36.8666 906.733 35.8999 911.133 35.8999C915.667 35.8999 919.633 36.8666 923.033 38.7999C926.433 40.7332 929.067 43.3666 930.933 46.6999C932.8 50.0332 933.733 53.7666 933.733 57.8999C933.733 62.0332 932.8 65.7999 930.933 69.1999C929.067 72.5332 926.4 75.1666 922.933 77.0999C919.533 79.0332 915.567 79.9999 911.033 79.9999C906.633 79.9999 902.7 79.0999 899.233 77.2999C895.833 75.4332 893.133 72.8666 891.133 69.5999C889.2 66.2666 888.233 62.3666 888.233 57.8999ZM897.533 57.9999C897.533 60.6666 898.133 63.0999 899.333 65.2999C900.533 67.4332 902.133 69.1332 904.133 70.3999C906.2 71.6666 908.467 72.2999 910.933 72.2999C913.533 72.2999 915.833 71.6666 917.833 70.3999C919.9 69.1332 921.5 67.4332 922.633 65.2999C923.767 63.0999 924.333 60.6666 924.333 57.9999C924.333 55.3332 923.767 52.9332 922.633 50.7999C921.5 48.5999 919.9 46.8666 917.833 45.5999C915.833 44.2666 913.533 43.5999 910.933 43.5999C908.4 43.5999 906.1 44.2666 904.033 45.5999C902.033 46.9332 900.433 48.6999 899.233 50.8999C898.1 53.0332 897.533 55.3999 897.533 57.9999ZM255.485 173.6C254.285 174.4 252.651 175.3 250.585 176.3C248.518 177.3 246.085 178.133 243.285 178.8C240.551 179.467 237.551 179.8 234.285 179.8C228.685 179.733 223.618 178.733 219.085 176.8C214.618 174.867 210.818 172.233 207.685 168.9C204.551 165.567 202.118 161.733 200.385 157.4C198.718 153 197.885 148.333 197.885 143.4C197.885 138 198.751 133.033 200.485 128.5C202.285 123.9 204.785 119.933 207.985 116.6C211.185 113.2 214.951 110.567 219.285 108.7C223.685 106.833 228.485 105.9 233.685 105.9C238.018 105.9 241.951 106.5 245.485 107.7C249.018 108.833 252.051 110.2 254.585 111.8L250.685 120.8C248.685 119.467 246.251 118.2 243.385 117C240.585 115.8 237.451 115.2 233.985 115.2C230.451 115.2 227.118 115.9 223.985 117.3C220.851 118.7 218.085 120.667 215.685 123.2C213.285 125.733 211.385 128.7 209.985 132.1C208.651 135.433 207.985 139.033 207.985 142.9C207.985 146.833 208.585 150.5 209.785 153.9C211.051 157.233 212.818 160.133 215.085 162.6C217.418 165.067 220.218 167 223.485 168.4C226.751 169.8 230.418 170.5 234.485 170.5C238.151 170.5 241.418 169.933 244.285 168.8C247.151 167.667 249.518 166.4 251.385 165L255.485 173.6ZM265.918 157.9C265.918 153.767 266.885 150.033 268.818 146.7C270.818 143.367 273.551 140.733 277.018 138.8C280.485 136.867 284.418 135.9 288.818 135.9C293.351 135.9 297.318 136.867 300.718 138.8C304.118 140.733 306.751 143.367 308.618 146.7C310.484 150.033 311.418 153.767 311.418 157.9C311.418 162.033 310.484 165.8 308.618 169.2C306.751 172.533 304.084 175.167 300.618 177.1C297.218 179.033 293.251 180 288.718 180C284.318 180 280.385 179.1 276.918 177.3C273.518 175.433 270.818 172.867 268.818 169.6C266.885 166.267 265.918 162.367 265.918 157.9ZM275.218 158C275.218 160.667 275.818 163.1 277.018 165.3C278.218 167.433 279.818 169.133 281.818 170.4C283.884 171.667 286.151 172.3 288.618 172.3C291.218 172.3 293.518 171.667 295.518 170.4C297.584 169.133 299.184 167.433 300.318 165.3C301.451 163.1 302.018 160.667 302.018 158C302.018 155.333 301.451 152.933 300.318 150.8C299.184 148.6 297.584 146.867 295.518 145.6C293.518 144.267 291.218 143.6 288.618 143.6C286.084 143.6 283.784 144.267 281.718 145.6C279.718 146.933 278.118 148.7 276.918 150.9C275.785 153.033 275.218 155.4 275.218 158ZM514.846 119.4H524.147V137.8H535.547V145.1H524.147V179H514.846V145.1H507.246V137.8H514.846V119.4ZM543.185 157.9C543.185 153.767 544.151 150.033 546.085 146.7C548.085 143.367 550.818 140.733 554.285 138.8C557.751 136.867 561.685 135.9 566.085 135.9C570.618 135.9 574.585 136.867 577.985 138.8C581.385 140.733 584.018 143.367 585.885 146.7C587.751 150.033 588.685 153.767 588.685 157.9C588.685 162.033 587.751 165.8 585.885 169.2C584.018 172.533 581.351 175.167 577.885 177.1C574.484 179.033 570.518 180 565.985 180C561.585 180 557.651 179.1 554.185 177.3C550.785 175.433 548.085 172.867 546.085 169.6C544.151 166.267 543.185 162.367 543.185 157.9ZM552.485 158C552.485 160.667 553.085 163.1 554.285 165.3C555.485 167.433 557.085 169.133 559.085 170.4C561.151 171.667 563.418 172.3 565.885 172.3C568.484 172.3 570.785 171.667 572.785 170.4C574.851 169.133 576.451 167.433 577.585 165.3C578.718 163.1 579.285 160.667 579.285 158C579.285 155.333 578.718 152.933 577.585 150.8C576.451 148.6 574.851 146.867 572.785 145.6C570.785 144.267 568.484 143.6 565.885 143.6C563.351 143.6 561.051 144.267 558.985 145.6C556.985 146.933 555.385 148.7 554.185 150.9C553.051 153.033 552.485 155.4 552.485 158ZM655.217 106.7H664.917V169.7H701.617V179H655.217V106.7ZM715.124 137.6H724.424V179H715.124V137.6ZM714.424 122.6C714.424 121.133 714.991 119.9 716.124 118.9C717.324 117.9 718.624 117.4 720.024 117.4C721.424 117.4 722.658 117.9 723.724 118.9C724.858 119.9 725.424 121.133 725.424 122.6C725.424 124.133 724.858 125.4 723.724 126.4C722.658 127.333 721.424 127.8 720.024 127.8C718.624 127.8 717.324 127.3 716.124 126.3C714.991 125.3 714.424 124.067 714.424 122.6ZM743.915 179V145.9H736.815V137.6H743.915V120.1C743.915 114.1 745.248 109.5 747.915 106.3C750.648 103.1 754.648 101.5 759.915 101.5C761.315 101.5 762.848 101.7 764.515 102.1C766.248 102.5 767.748 103.167 769.015 104.1L765.115 110.8C764.515 110.2 763.848 109.8 763.115 109.6C762.382 109.333 761.648 109.2 760.915 109.2C758.448 109.2 756.548 110.033 755.215 111.7C753.882 113.367 753.215 116.2 753.215 120.2V137.6H766.315V145.9H753.215V179H743.915ZM993.398 81.6C990.465 81.6 987.599 81.1 984.799 80.1C982.065 79.0334 979.799 77.4667 977.999 75.4L981.898 70C983.632 71.6667 985.398 72.9333 987.198 73.8C989.065 74.6 990.898 75 992.698 75C994.032 75 995.265 74.8333 996.398 74.5C997.532 74.1667 998.432 73.6333 999.099 72.9C999.832 72.1 1000.2 71.0333 1000.2 69.7C1000.2 68.2334 999.698 67.0667 998.698 66.2C997.765 65.3333 996.532 64.6334 994.999 64.1C993.532 63.5667 991.965 63.0667 990.299 62.6C986.899 61.4667 984.299 59.9 982.499 57.9C980.699 55.9 979.799 53.4667 979.799 50.6C979.799 48.4 980.332 46.3667 981.398 44.5C982.532 42.5667 984.165 41 986.299 39.8C988.499 38.6 991.198 38 994.398 38C997.265 38 999.832 38.3667 1002.1 39.1C1004.37 39.7667 1006.5 40.9 1008.5 42.5L1004.8 48.3C1003.6 47.0334 1002.17 46.1 1000.5 45.5C998.832 44.9 997.332 44.5667 995.999 44.5C994.865 44.4334 993.765 44.6 992.698 45C991.698 45.4 990.865 45.9667 990.198 46.7C989.532 47.4334 989.198 48.3 989.198 49.3C989.198 50.7 989.665 51.8334 990.599 52.7C991.532 53.5667 992.732 54.2667 994.198 54.8C995.732 55.2667 997.232 55.7667 998.698 56.3C1000.77 56.9 1002.6 57.7 1004.2 58.7C1005.8 59.7 1007.07 60.9334 1008 62.4C1009 63.8667 1009.5 65.7 1009.5 67.9C1009.5 70.3667 1008.9 72.6667 1007.7 74.8C1006.57 76.8667 1004.8 78.5334 1002.4 79.8C1000.07 81 997.065 81.6 993.398 81.6Z" stroke="#EEF5DB" stroke-width="3" stroke-linecap="round"/>
</svg>
